<svg xmlns="http://www.w3.org/2000/svg" width="16" height="16" viewBox="0 0 16 16">
  <path fill-rule="evenodd" d="M14.8546707,7.64824219 L13.3546707,6.14824219 C13.2109207,6.00449219 12.9968582,5.96230469 12.8093582,6.04042969 C12.6218582,6.11855469 12.4999832,6.29980469 12.4999832,6.50292969 L12.4999832,7.50292969 L8.50154574,7.50292969 L8.50154574,3.50136719 L9.50154574,3.50136719 C9.70310824,3.50136719 9.88592074,3.37949219 9.96404574,3.19199219 C10.0421707,3.00449219 9.99842074,2.79042969 9.85623324,2.64667969 L8.35623324,1.14667969 C8.16092074,0.951367187 7.84373324,0.951367187 7.64842074,1.14667969 L6.14842074,2.64667969 C6.00467074,2.79042969 5.96248324,3.00449219 6.04060824,3.19199219 C6.11873324,3.37949219 6.29998324,3.50136719 6.50154574,3.50136719 L7.50154574,3.50136719 L7.50154574,7.50136719 L3.50154574,7.50136719 L3.50154574,6.50136719 C3.50154574,6.29980469 3.37967074,6.11699219 3.19217074,6.03886719 C3.00467074,5.96074219 2.79060824,6.00449219 2.64685824,6.14667969 L1.14685824,7.64667969 C1.05310824,7.74042969 0.999983238,7.86855469 0.999983238,7.99980469 C0.999983238,8.13105469 1.05310824,8.26074219 1.14685824,8.35292969 L2.64685824,9.85292969 C2.79060824,9.99667969 3.00467074,10.0388672 3.19217074,9.96074219 C3.37967074,9.88261719 3.50154574,9.70136719 3.50154574,9.49824219 L3.50154574,8.49824219 L7.50154574,8.49824219 L7.50154574,12.4982422 L6.50154574,12.4982422 C6.29998324,12.4982422 6.11717074,12.6201172 6.03904574,12.8076172 C5.96092074,12.9951172 6.00467074,13.2091797 6.14685824,13.3529297 L7.64685824,14.8529297 C7.74060824,14.9466797 7.86873324,14.9998047 7.99998324,14.9998047 C8.13123324,14.9998047 8.26092074,14.9466797 8.35310824,14.8529297 L9.85310824,13.3529297 C9.99685824,13.2091797 10.0390457,12.9951172 9.96092074,12.8076172 C9.88279574,12.6201172 9.70154574,12.4982422 9.49842074,12.4982422 L8.49842074,12.4982422 L8.49842074,8.50136719 L12.4984207,8.50136719 L12.4984207,9.50136719 C12.4984207,9.70292969 12.6202957,9.88574219 12.8077957,9.96386719 C12.9952957,10.0419922 13.2093582,9.99824219 13.3531082,9.85605469 L14.8531082,8.35605469 C14.9468582,8.26230469 15.0000168,8.13417969 15.0000168,8.00292969 C15.0015457,7.87011719 14.9484207,7.74042969 14.8546707,7.64824219 Z"/>
</svg>
