<svg xmlns="http://www.w3.org/2000/svg" width="16" height="16" viewBox="0 0 16 16">
  <path d="M11.5,6.99843902 C13.9852814,6.99843902 16,9.01315765 16,11.498439 C16,13.9837204 13.9852814,15.998439 11.5,15.998439 C9.01471863,15.998439 7,13.9837204 7,11.498439 C7,9.01315765 9.01471863,6.99843902 11.5,6.99843902 Z M11.5,7.99843902 C9.56700338,7.99843902 8,9.5654424 8,11.498439 C8,13.4314356 9.56700338,14.998439 11.5,14.998439 C13.4329966,14.998439 15,13.4314356 15,11.498439 C15,9.5654424 13.4329966,7.99843902 11.5,7.99843902 Z M11.4995122,8.99843902 C11.7451057,8.99843902 11.9487648,9.17481 11.9909904,9.40805273 L11.9990244,9.49795122 L11.9990244,10.9964878 L13.497561,10.9964878 C13.7738537,10.9964878 13.9970732,11.2197073 13.9970732,11.496 C13.9970732,11.7415935 13.8207022,11.9452526 13.5874595,11.9874782 L13.497561,11.9955122 L11.4995122,11.9955122 C11.2539187,11.9955122 11.0502596,11.8191412 11.008034,11.5858985 L11,11.496 L11,9.49795122 C11,9.22165854 11.2232195,8.99843902 11.4995122,8.99843902 Z M3.78790244,1 L10.198439,1 C10.5043902,1.00136585 10.7912195,1.14017073 10.9815427,1.37458537 L11.0569756,1.48078049 L12.8552195,4.12819512 L12.8552195,4.12819512 L12.8973659,4.21092683 L12.8973659,4.21092683 C12.955122,4.29521951 12.9863415,4.39512195 12.9863415,4.49658537 L12.9847805,4.54341463 L12.9847805,4.54341463 L12.9879024,4.62926829 L12.9879024,5.49463415 C12.9879024,5.77092683 12.7646829,5.99414634 12.4883902,5.99414634 C12.2427967,5.99414634 12.0391376,5.81777537 11.996912,5.58453264 L11.988878,5.49463415 L11.988878,4.99609756 L8.99278049,4.99609756 L8.99278049,6.99473171 C8.99278049,7.12585366 8.94126829,7.25229268 8.84760976,7.34595122 C8.67416802,7.52078049 8.40452394,7.54020596 8.2097039,7.40532397 L8.1404878,7.3475122 L6.99473171,6.2017561 L5.84897561,7.3475122 C5.70536585,7.49112195 5.4915122,7.53326829 5.30419512,7.45521951 C5.14363763,7.38832056 5.03124739,7.24573021 5.00241257,7.07856474 L4.99512195,6.99317073 L4.99512195,4.99609756 L1.99902439,4.99609756 L1.99902439,10.9892683 L5.49365854,10.9892683 C5.76995122,10.9892683 5.99317073,11.2124878 5.99317073,11.4887805 C5.99317073,11.734374 5.81679976,11.9380331 5.58355703,11.9802587 L5.49365854,11.9882927 L1.99902439,11.9882927 C1.48735889,11.9882927 1.06452563,11.602007 1.00673142,11.1056423 L1,10.9892683 L1.00097561,4.59102439 L1.00312195,4.55278049 C1.00156098,4.53404878 1,4.51531707 1,4.49658537 C1,4.39043902 1.03278049,4.28897561 1.09521951,4.20312195 L1.13834146,4.11980488 L1.13834146,4.11980488 L2.9324878,1.48390244 C3.08956098,1.22165854 3.35897561,1.04785366 3.6581189,1.0085 L3.78790244,1 L10.198439,1 L3.78790244,1 Z M7.99219512,1.99902439 L5.99414634,1.99902439 L5.99414634,5.78653659 L6.63882927,5.14029268 C6.81365854,4.96685095 7.08222343,4.94757964 7.27678651,5.08247877 L7.34595122,5.14029268 L7.99219512,5.78653659 L7.99219512,1.99902439 Z M8.99121951,1.99902439 L8.99121951,3.99707317 L11.5564878,3.99707317 L10.209561,2.01678049 L10.209561,2.01678049 L10.2,2.00058537 L8.99121951,1.99902439 Z M4.99356098,3.99707317 L4.99356098,1.99902439 L3.78634146,1.99902439 L3.76604878,2.03180488 L2.42985366,3.99707317 L4.99356098,3.99707317 Z"/>
</svg>
