<svg xmlns="http://www.w3.org/2000/svg" width="16" height="16" viewBox="0 0 16 16">
  <path fill-rule="evenodd" d="M10.419512,9.25 C10.76469,9.25 11.044512,9.52982203 11.044512,9.875 C11.044512,10.0477556 10.9730068,10.2128061 10.8469752,10.3309608 L8.42746321,12.5992532 C8.18705183,12.8246389 7.81294817,12.8246389 7.57253679,12.5992532 L5.1530248,10.3309608 C4.90120463,10.0948793 4.88844585,9.69935696 5.12452726,9.44753679 C5.24268191,9.32150517 5.40773242,9.25 5.58048801,9.25 L10.419512,9.25 Z M8.42746321,3.40074676 L10.8469752,5.66903925 C11.0987954,5.90512066 11.1115542,6.30064304 10.8754727,6.55246321 C10.7573181,6.67849483 10.5922676,6.75 10.419512,6.75 L5.58048801,6.75 C5.23531004,6.75 4.95548801,6.47017797 4.95548801,6.125 C4.95548801,5.95224442 5.02699318,5.7871939 5.1530248,5.66903925 L7.57253679,3.40074676 C7.81294817,3.17536109 8.18705183,3.17536109 8.42746321,3.40074676 Z"/>
</svg>
