<svg xmlns="http://www.w3.org/2000/svg" width="16" height="16" viewBox="0 0 16 16">
  <path d="M7.28342931,2.83739828 C7.47872633,3.03262556 7.47872633,3.34920805 7.28346418,3.54447019 C7.28345256,3.54448182 7.28344094,3.54449344 7.28339444,3.54447019 L2.82514033,8.00184489 L2.82514033,8.00184489 L14.3818597,8.00265234 C14.6579884,8.00270656 14.8818247,8.22655854 14.8818597,8.50268727 C14.8818946,8.77882964 14.658037,9.00268727 14.3818946,9.00268727 C14.381883,9.00268727 14.3818713,9.00268727 14.3818597,9.00265234 L2.82514033,9.00184489 L2.82514033,9.00184489 L7.28345634,13.4608425 C7.47870793,13.6561239 7.47869583,13.9727097 7.28342931,14.1679763 C7.08816717,14.3632384 6.77158468,14.3632384 6.57632253,14.1679763 L1.26458694,8.85624066 L1.26458694,8.85624066 C1.09102058,8.68267431 1.07173543,8.41324991 1.20673148,8.21838177 L1.26458694,8.14913388 L6.57632253,2.83739828 C6.77158468,2.64213614 7.08816717,2.64213614 7.28342931,2.83739828 Z"/>
</svg>
