<svg xmlns="http://www.w3.org/2000/svg" width="16" height="16" viewBox="0 0 16 16">
  <path d="M10,6 L2,6 L2,14 L10,14 L10,6 Z M14,2 L8,2 L8,3 L12,3 C12.5522847,3 13,3.44771525 13,4 L13,8 L14,8 L14,2 Z M12,11 L12,4 L5,4 L5,5 L10,5 C10.5522847,5 11,5.44771525 11,6 L11,11 L12,11 Z M11,14 C11,14.5522847 10.5522847,15 10,15 L2,15 C1.44771525,15 1,14.5522847 1,14 L1,6 C1,5.44771525 1.44771525,5 2,5 L4,5 L4,4 C4,3.44771525 4.44771525,3 5,3 L7,3 L7,2 C7,1.44771525 7.44771525,1 8,1 L14,1 C14.5522847,1 15,1.44771525 15,2 L15,8 C15,8.55228475 14.5522847,9 14,9 L13,9 L13,11 C13,11.5522847 12.5522847,12 12,12 L11,12 L11,14 Z"/>
</svg>
