<svg xmlns="http://www.w3.org/2000/svg" width="16" height="16" viewBox="0 0 16 16">
  <path d="M3,9.73900507 C3.2974736,9.73900507 3.56460998,9.86889415 3.74778815,10.0750513 L3.8167343,10.1618497 C4.19264814,9.99957946 4.66721129,9.94970609 5.27118152,10.0054776 L5.68637932,10.0517782 L5.90416692,10.0704924 L6.16572915,10.0877345 L7.80947591,10.1681168 L8.20107172,10.1942369 L8.54363555,10.2244474 L8.85205991,10.2605268 C10.0462245,10.4201416 10.3457878,11.5706438 9.74428704,12.171442 C9.9548482,12.1941441 10.170558,12.1821817 10.3821475,12.1350413 L10.5399223,12.0930822 L13.4762645,11.1830009 C13.8899084,11.0547973 14.3362209,11.175581 14.6286936,11.4849155 L14.7116337,11.5833119 L14.778099,11.6860284 C14.9963457,12.0807152 14.8811036,12.5697349 14.5257815,12.828595 L14.4320033,12.8883273 L10.2544072,15.1983789 C9.74361287,15.4808287 9.15008315,15.5756492 8.57667773,15.4664094 L7.02175521,15.1779617 C5.97357895,14.9902732 5.3058654,14.8885555 5.04879107,14.8758273 L3.99084833,14.8748674 C3.92455844,15.3628864 3.50620284,15.7390051 3,15.7390051 L2,15.7390051 C1.44771525,15.7390051 1,15.2912898 1,14.7390051 L1,10.7390051 C1,10.1867203 1.44771525,9.73900507 2,9.73900507 L3,9.73900507 Z M3,10.7390051 L2,10.7390051 L2,14.7390051 L3,14.7390051 L3,10.7390051 Z M4.07323766,11.1581709 L4,11.2130051 L4,13.8740051 L5.06295563,13.8758733 L5.24291423,13.8889306 C5.41678047,13.9055298 5.65065601,13.9364502 5.94647174,13.9818849 L6.54625254,14.0793846 L7.20971299,14.1954365 L8.76384423,14.4840812 C9.05874116,14.5402622 9.36251502,14.5064883 9.63629126,14.3889693 L9.7704996,14.3232598 L13.6580677,12.1735827 L10.8359662,13.0482565 C10.0204955,13.3010011 9.13955438,13.1946753 8.41076405,12.7627297 L8.267,12.6700051 L7.92554649,12.7236708 C7.57482452,12.7744432 7.1976821,12.8175869 6.79395614,12.8532174 C6.51888293,12.8774937 6.2762122,12.6741826 6.25193589,12.3991094 C6.22765958,12.1240362 6.43097065,11.8813654 6.70604386,11.8570891 C7.59157993,11.7789371 8.33292848,11.6640512 8.92806509,11.5138608 C9.11860405,11.4657759 9.10806456,11.3036383 8.71957588,11.251712 L8.43582923,11.2186776 L8.11465335,11.1905946 C7.99987851,11.1818899 7.87664846,11.1737567 7.74274617,11.1659416 L6.09055504,11.0850987 L5.69325145,11.0567852 L5.17133556,11.0003395 C4.60649935,10.94812 4.26975585,11.0128809 4.07323766,11.1581709 Z M8.5,0.260994928 C10.9852814,0.260994928 13,2.27571355 13,4.76099493 C13,7.2462763 10.9852814,9.26099493 8.5,9.26099493 C6.01471863,9.26099493 4,7.2462763 4,4.76099493 C4,2.27571355 6.01471863,0.260994928 8.5,0.260994928 Z M8.5,1.26099493 C6.56700338,1.26099493 5,2.8279983 5,4.76099493 C5,6.69399155 6.56700338,8.26099493 8.5,8.26099493 C10.4329966,8.26099493 12,6.69399155 12,4.76099493 C12,2.8279983 10.4329966,1.26099493 8.5,1.26099493 Z M8.28801303,1.97193243 L8.78773335,1.97339076 L8.78481953,2.53630743 C9.45936912,2.60047409 9.80611384,2.98693243 9.80611384,2.98693243 L9.47685205,3.62714076 L9.40730733,3.5678504 C9.27242929,3.46107305 8.95418538,3.24724493 8.56628294,3.24505743 C8.21808132,3.24359909 7.94272522,3.45651576 7.94126831,3.76276576 C7.93835449,4.49047409 9.8978992,4.36943243 9.89209745,5.73880743 C9.89209745,6.36151576 9.47685205,6.89234909 8.7673366,6.98714076 L8.76442278,7.55005743 L8.26470246,7.54859909 L8.26761628,6.98568243 C7.51730733,6.89089076 7.10791546,6.40526576 7.10791546,6.40526576 L7.51730733,5.81318243 L7.58453941,5.87531858 C7.72976628,6.00089323 8.09614911,6.27323051 8.54442929,6.27547409 C8.85912197,6.27839076 9.14321953,6.10776576 9.14467644,5.75193243 C9.14759026,5.01693243 7.1822179,5.08401576 7.18804555,3.77005743 C7.19095937,3.13859909 7.63968782,2.65151576 8.2850992,2.54505743 L8.28801303,1.97193243 Z"/>
</svg>
