<svg xmlns="http://www.w3.org/2000/svg" width="16" height="16" viewBox="0 0 16 16">
  <path d="M13.5062497,1 C13.7517096,1 13.9558581,1.17687516 13.9981941,1.41012437 L14.0062497,1.5 L14.0062497,6.49725382 C14.0062497,6.77339619 13.7823921,6.99725382 13.5062497,6.99725382 C13.2607898,6.99725382 13.0566414,6.82037866 13.0143054,6.58712945 L13.0062497,6.49725382 L13.0062497,2 L1.99266425,2 L1.99266425,14.0017649 L6.83353019,14.0017649 C7.10967257,14.0017649 7.33353019,14.2256225 7.33353019,14.5017649 C7.33353019,14.7472248 7.15665503,14.9513732 6.92340582,14.9937092 L6.83353019,15.0017649 L1.49266425,15.0017649 C1.24720436,15.0017649 1.04305588,14.8248897 1.00071992,14.5916405 L0.992664253,14.5017649 L0.992664253,1.5 C0.992664253,1.25454011 1.16953941,1.05039163 1.40278862,1.00805567 L1.49266425,1 L13.5062497,1 Z M9.85355339,8.64644661 L12.073,10.866 L14.267767,8.67157288 C14.4630291,8.47631073 14.7796116,8.47631073 14.9748737,8.67157288 C15.1701359,8.86683502 15.1701359,9.18341751 14.9748737,9.37867966 L12.78,11.573 L14.8033009,13.5961941 C14.998563,13.7914562 14.998563,14.1080387 14.8033009,14.3033009 C14.6080387,14.498563 14.2914562,14.498563 14.0961941,14.3033009 L12.073,12.28 L10.0251263,14.3284271 C9.82986412,14.5236893 9.51328163,14.5236893 9.31801948,14.3284271 C9.12275734,14.133165 9.12275734,13.8165825 9.31801948,13.6213203 L11.366,11.573 L9.14644661,9.35355339 C8.95118446,9.15829124 8.95118446,8.84170876 9.14644661,8.64644661 C9.34170876,8.45118446 9.65829124,8.45118446 9.85355339,8.64644661 Z M6.4988042,7.99831782 C6.77494658,7.99831782 6.9988042,8.22217545 6.9988042,8.49831782 C6.9988042,8.7744602 6.77494658,8.99831782 6.4988042,8.99831782 L3.4988042,8.99831782 C3.22266183,8.99831782 2.9988042,8.7744602 2.9988042,8.49831782 C2.9988042,8.22217545 3.22266183,7.99831782 3.4988042,7.99831782 L6.4988042,7.99831782 Z M11.4988042,5.99725382 C11.7749466,5.99725382 11.9988042,6.22111144 11.9988042,6.49725382 C11.9988042,6.77339619 11.7749466,6.99725382 11.4988042,6.99725382 L3.4988042,6.99725382 C3.22266183,6.99725382 2.9988042,6.77339619 2.9988042,6.49725382 C2.9988042,6.22111144 3.22266183,5.99725382 3.4988042,5.99725382 L11.4988042,5.99725382 Z M11.4988042,3.99618981 C11.7749466,3.99618981 11.9988042,4.22004744 11.9988042,4.49618981 C11.9988042,4.77233219 11.7749466,4.99618981 11.4988042,4.99618981 L3.4988042,4.99618981 C3.22266183,4.99618981 2.9988042,4.77233219 2.9988042,4.49618981 C2.9988042,4.22004744 3.22266183,3.99618981 3.4988042,3.99618981 L11.4988042,3.99618981 Z"/>
</svg>
