<svg xmlns="http://www.w3.org/2000/svg" width="16" height="16" viewBox="0 0 16 16">
  <path d="M2.15932916,6.17321692 L6.16305178,2.20272941 C6.35912605,2.00828278 6.67570579,2.00960222 6.87015242,2.20567649 C7.04299388,2.37996472 7.04299388,2.71632957 6.87015242,2.91277713 L3.7256636,6.02824077 L14.4962586,6.02824077 C14.772401,6.02824077 14.9962586,6.2520984 14.9962586,6.52824077 C14.9962586,6.77370066 14.7768555,7.02824077 14.5175476,7.02824077 L2.51140595,7.02824077 C2.09471192,7.02824077 1.81887817,6.55234779 2.15932916,6.17321692 L6.16305178,2.20272941 L2.15932916,6.17321692 Z M14.8431245,9.88326463 L10.8394019,13.8537521 C10.6433277,14.0481988 10.3267479,14.0468793 10.1323013,13.8508051 C9.95945982,13.6765168 9.95945982,13.340152 10.1323013,13.1437044 L13.2767901,10.0282408 L2.50619508,10.0282408 C2.23005271,10.0282408 2.00619508,9.80438315 2.00619508,9.52824077 C2.00619508,9.28278089 2.22559823,9.02824077 2.48490609,9.02824077 L14.4910478,9.02824077 C14.9077418,9.02824077 15.1835755,9.50413375 14.8431245,9.88326463 L10.8394019,13.8537521 L14.8431245,9.88326463 Z"/>
</svg>
