<svg xmlns="http://www.w3.org/2000/svg" width="16" height="16" viewBox="0 0 16 16">
  <path fill-rule="evenodd" d="M13.6875,5.25 C14.1041791,5.25 14.4475996,5.56365765 14.4945337,5.96774534 L14.5,6.0625 L14.5,14.1547462 C14.5,14.3791118 14.3181157,14.5609962 14.09375,14.5609962 C14.0015022,14.5609962 13.9120011,14.5296009 13.8399676,14.4719741 L12.4679375,13.375 L5.48530239,13.375 C5.09998881,13.375 4.77254237,13.1054884 4.69177744,12.7373399 L4.67683468,12.6433468 L4.5866875,11.75 L11.3205131,11.75 C12.1189456,11.75 12.7922236,11.1716096 12.9227941,10.3961446 L12.9388396,10.2721206 L13.395,5.25 L13.6875,5.25 Z M11.9852858,2 C12.4340172,2 12.7977858,2.36376864 12.7977858,2.8125 L12.7944491,2.88606029 L12.1296763,10.1985603 C12.0916307,10.6170621 11.7407407,10.9375 11.3205131,10.9375 L4.423375,10.9375 L2.16632491,12.8197292 C2.111568,12.86536 2.04611246,12.8955097 1.97671339,12.9077326 L1.90625,12.9138893 C1.70681384,12.9138893 1.5409432,12.7701783 1.50654523,12.5806633 L1.5,12.5076393 L1.5,2.8125 C1.5,2.36376864 1.86376864,2 2.3125,2 L11.9852858,2 Z M8.50041011,6.20867509 C8.33843479,6.40304546 8.11776875,6.55406763 7.84923963,6.66507309 C7.46478548,6.82400001 7.08228554,6.875 6.78125,6.875 C6.48021446,6.875 6.09771452,6.82400001 5.71326037,6.66507309 C5.44473125,6.55406763 5.22406521,6.40304546 5.06208989,6.20867509 C4.91845449,6.0363126 4.66228758,6.0130247 4.48992509,6.15666011 C4.3175626,6.30029551 4.2942747,6.55646242 4.43791011,6.72882491 C4.69100111,7.03253412 5.01991914,7.25764313 5.40286229,7.41594543 C5.90587382,7.623882 6.38300885,7.6875 6.78125,7.6875 C7.17949115,7.6875 7.65662618,7.623882 8.15963771,7.41594543 C8.54258086,7.25764313 8.87149889,7.03253412 9.12458989,6.72882491 C9.2682253,6.55646242 9.2449374,6.30029551 9.07257491,6.15666011 C8.90021242,6.0130247 8.64404551,6.0363126 8.50041011,6.20867509 Z"/>
</svg>
