<svg xmlns="http://www.w3.org/2000/svg" width="16" height="16" viewBox="0 0 16 16">
  <path fill-rule="evenodd" d="M4.5,1 C4.77614237,1 5,1.22385763 5,1.5 L4.999,3.594 L12,3.59410496 C12.0909517,3.59410496 12.1790674,3.60624715 12.2628145,3.62899896 L14.0459415,1.84730501 C14.2412037,1.65204287 14.5577862,1.65204287 14.7530483,1.84730501 C14.9483105,2.04256716 14.9483105,2.35914965 14.7530483,2.55441179 L12.9677958,4.34140151 C12.9888135,4.42211975 13,4.50680598 13,4.59410496 L13,11.594 L15.1155736,11.594105 C15.391716,11.594105 15.6155736,11.8179626 15.6155736,12.094105 C15.6155736,12.3702473 15.391716,12.594105 15.1155736,12.594105 L13,12.594 L13,15.094105 C13,15.3702473 12.7761424,15.594105 12.5,15.594105 C12.2238576,15.594105 12,15.3702473 12,15.094105 L12,12.594 L5,12.594105 C4.44771525,12.594105 4,12.1463897 4,11.594105 L3.999,4.594 L1.5,4.59410496 C1.22385763,4.59410496 1,4.37024734 1,4.09410496 C1,3.81796259 1.22385763,3.59410496 1.5,3.59410496 L3.999,3.594 L4,1.5 C4,1.22385763 4.22385763,1 4.5,1 Z M12,5.307 L5.712,11.594 L12,11.594 L12,5.307 Z M11.298,4.594 L4.999,4.594 L4.999,10.893 L11.298,4.594 Z"/>
</svg>
