<svg xmlns="http://www.w3.org/2000/svg" width="16" height="16" viewBox="0 0 16 16">
  <path fill-rule="evenodd" d="M8.47651141,13.1037481 L8.40722905,13.1615623 C8.23664905,13.2795822 8.00905733,13.2794465 7.83861815,13.1612233 L7.76940476,13.1033266 L3.14623599,8.47464293 C3.05302772,8.38132347 3.00046758,8.25495512 3,8.1230609 C2.99913888,7.87760253 3.17529412,7.67283252 3.40839281,7.62967553 L3.49823952,7.62130345 L6.64000544,7.60998404 L6.63961812,3.5 C6.63961812,3.22385763 6.86347575,3 7.13961812,3 L9.13961812,3 C9.4157605,3 9.63961812,3.22385763 9.63961812,3.5 L9.64000544,7.59998404 L12.7732449,7.5886451 C12.8796775,7.58827034 12.9827186,7.62184197 13.0678931,7.68340261 L13.1281978,7.73472794 C13.3019412,7.90811706 13.3215013,8.17752163 13.1867042,8.37252746 L13.1289195,8.44183436 L8.47651141,13.1037481 L8.47651141,13.1037481 L8.40722905,13.1615623 L8.47651141,13.1037481 Z"/>
</svg>
