<svg xmlns="http://www.w3.org/2000/svg" viewBox="0 0 16 16"><path fill-rule="evenodd" d="M13.982 7.146l1.414 1.415a.5.5 0 010 .707L9.503 15.16a.5.5 0 01-.282.142l-1.65.235a.5.5 0 01-.566-.565l.236-1.65a.5.5 0 01.141-.283l5.893-5.893a.5.5 0 01.707 0zm-.354 1.061l-5.42 5.421-.119.825.825-.118 5.421-5.42-.707-.708zM5 2H3v11h2.5a.5.5 0 110 1H3a1 1 0 01-1-1V2a1 1 0 011-1L4.999.999l.008-.116A1 1 0 016 0h4a1 1 0 011 1v1a1 1 0 01-1 1H6a1 1 0 01-.993-.883L5 2zm4.5 6a.5.5 0 010 1h-4a.5.5 0 010-1h4zM13 1a1 1 0 011 1v3.5a.5.5 0 11-1 0V2h-2V1h2zm-2.5 4a.5.5 0 110 1h-5a.5.5 0 010-1h5zM10 1H6v1h4V1z"/></svg>