<svg xmlns="http://www.w3.org/2000/svg" width="16" height="16" viewBox="0 0 16 16">
  <path d="M6.50692156,2 C7.08217707,2 7.87390592,2.44054357 8.51774029,2.86712042 C9.60884094,2.258011 10.160514,2 10.5220425,2 L14.0031784,2 C14.5554632,2 15.0031784,2.44771525 15.0031784,3 L15.0031784,12.9195918 C15.0031784,13.4718638 14.5554504,13.9195687 14.0031784,13.9195687 L10.5075199,13.9195687 C10.1708939,13.9195687 8.93829366,14.7893464 8.5109755,14.7893464 C8.08365734,14.7893464 6.9191394,13.9195687 6.51058323,13.9195687 L3.00003214,13.9195687 C2.44772964,13.9196008 2,13.4718712 2,12.9195687 L2,3 C2,2.44771525 2.44771525,2 3,2 L6.50692156,2 Z M14.0031784,3 L10.5220425,3 C10.3944161,3 9.75539186,3.31590418 9,3.743 L9,13.5246778 C9.39284596,13.3133631 9.67116172,13.1714832 9.83494726,13.0990383 C10.0806256,12.9903709 10.2722293,12.9360787 10.5075199,12.9360787 L14.0031784,12.9360902 L14.0031784,3 Z M6.50692156,3 L3,3 L3,12.9213505 L6.59964678,12.922821 C6.88638522,12.9329781 7.08273474,12.9992251 7.51903855,13.2276522 L8,13.4869496 L8,3.723 C7.33510296,3.28246794 6.74282866,3 6.50692156,3 Z"/>
</svg>
