<svg xmlns="http://www.w3.org/2000/svg" width="16" height="16" viewBox="0 0 16 16">
  <path fill-rule="evenodd" d="M12.0006953,2 C12.5529801,2 13.0006953,2.44771525 13.0006953,3 L13,7.2 L13.4312342,6.90227038 C13.8854881,6.5881497 14.5083788,6.70175015 14.8224995,7.15600408 C14.9380842,7.32315263 15,7.52154966 15,7.7247699 L15,14 C15,14.5522847 14.5522847,15 14,15 L2,15 C1.44771525,15 1,14.5522847 1,14 L1,7.72387002 C1,7.17158528 1.44771525,6.72387002 2,6.72387002 C2.20308783,6.72387002 2.40136201,6.78570522 2.56844648,6.90114978 L3,7.2 L3.00069532,3 C3.00069532,2.44771525 3.44841057,2 4.00069532,2 L12.0006953,2 Z M2,7.72387002 L2,14 L14,14 L14,7.7247699 L8.57167062,11.4785085 C8.22953979,11.7150951 7.77668099,11.715183 7.43445833,11.4787292 L2,7.72387002 Z M12.0006953,3 L4.00069532,3 L4,7.891 L8.00290481,10.656009 L12,7.891 L12.0006953,3 Z M9.99661826,7 C10.2727606,7 10.4966183,7.22385763 10.4966183,7.5 C10.4966183,7.77614237 10.2727606,8 9.99661826,8 L5.99661826,8 C5.72047588,8 5.49661826,7.77614237 5.49661826,7.5 C5.49661826,7.22385763 5.72047588,7 5.99661826,7 L9.99661826,7 Z M9.99661826,5 C10.2727606,5 10.4966183,5.22385763 10.4966183,5.5 C10.4966183,5.77614237 10.2727606,6 9.99661826,6 L5.99661826,6 C5.72047588,6 5.49661826,5.77614237 5.49661826,5.5 C5.49661826,5.22385763 5.72047588,5 5.99661826,5 L9.99661826,5 Z"/>
</svg>
