<svg xmlns="http://www.w3.org/2000/svg" width="16" height="16" viewBox="0 0 16 16">
  <path d="M6.800412,1.68080777 C6.89231183,1.68080777 6.96971142,1.74299045 6.99295851,1.82763985 L7.00009124,1.88080777 L7.00009124,13.7870722 C7.00009124,13.8791197 6.9380083,13.9566436 6.85349465,13.979928 L6.800412,13.9870722 L1.19972637,13.9870722 C1.1703008,13.9870722 1.14123891,13.9805583 1.1146199,13.9679965 C1.03148534,13.9287644 0.987928751,13.8394707 1.00291999,13.7529708 L1.01909224,13.701829 L6.61977786,1.7955646 C6.65273064,1.72551167 6.72309725,1.68080777 6.800412,1.68080777 Z M9.199588,1.68080777 C9.27690275,1.68080777 9.34726936,1.72551167 9.38022214,1.7955646 L14.9809078,13.701829 C15.0279108,13.8017508 14.9851416,13.920918 14.8853801,13.9679965 C14.8587611,13.9805583 14.8296992,13.9870722 14.8002736,13.9870722 L9.199588,13.9870722 C9.0893082,13.9870722 8.99990876,13.8975292 8.99990876,13.7870722 L8.99990876,1.88080777 C8.99990876,1.77035082 9.0893082,1.68080777 9.199588,1.68080777 Z M6.00169502,5.45575001 L2.45897444,12.9870722 L6.00169502,12.9870722 L6.00169502,5.45575001 Z"/>
</svg>
