<svg xmlns="http://www.w3.org/2000/svg" width="16" height="16" viewBox="0 0 16 16">
  <path d="M13.9221768,13.7815284 L13.8927126,13.8217978 L13.840498,13.8800776 L13.784025,13.9256754 L13.6899599,13.9769075 L13.6275039,13.9979073 L13.5597126,14.0097978 L13.4993648,14.0145181 L9.49936476,14.0145181 C9.22322238,14.0145181 8.99936476,13.7906605 8.99936476,13.5145181 C8.99936476,13.2690582 9.17623992,13.0649097 9.40948912,13.0225738 L9.49936476,13.0145181 L12.2923648,13.0145181 L8.86731421,9.58957434 C8.69374786,9.41600798 8.67446271,9.14658358 8.80945876,8.95171544 L8.86731421,8.88246755 C9.04088056,8.7089012 9.31030497,8.68961605 9.50517311,8.8246121 L9.57442099,8.88246755 L12.9993648,12.3075181 L12.9993648,9.5145181 C12.9993648,9.26905821 13.1762399,9.06490973 13.4094891,9.02257377 L13.4993648,9.0145181 C13.7448246,9.0145181 13.9489731,9.19139326 13.9913091,9.42464247 L13.9993648,9.5145181 L13.9992413,13.525739 L13.9882725,13.6197458 L13.9692481,13.6858098 L13.9425598,13.7462763 C13.9360714,13.7585648 13.9293454,13.7702006 13.9221768,13.7815284 Z M6.50237045,2.00127641 C6.77851282,2.00127641 7.00237045,2.22513403 7.00237045,2.50127641 C7.00237045,2.74673629 6.82549529,2.95088478 6.59224608,2.99322074 L6.50237045,3.00127641 L3.70937045,3.00127641 L7.13442099,6.42622017 C7.30798735,6.59978652 7.3272725,6.86921092 7.19227644,7.06407906 L7.13442099,7.13332695 C6.96085464,7.3068933 6.69143024,7.32617845 6.4965621,7.1911824 L6.42731421,7.13332695 L3.00237045,3.70827641 L3.00237045,6.50127641 C3.00237045,6.74673629 2.82549529,6.95088478 2.59224608,6.99322074 L2.50237045,7.00127641 C2.25691056,7.00127641 2.05276208,6.82440125 2.01042612,6.59115204 L2.00237045,6.50127641 L2.00415332,2.45889455 L2.01897871,2.37313064 L2.04016269,2.31023984 L2.07955846,2.23426609 L2.10637045,2.19427641 L2.16123717,2.13571689 L2.21771022,2.09011908 L2.2909747,2.04801992 L2.37423131,2.01788723 L2.43337045,2.00627641 L2.50237045,2.00127641 L6.50237045,2.00127641 Z M9.49936476,2.00127641 L13.4987126,2.00127641 L13.5527623,2.00409655 L13.6275039,2.01788723 L13.7107605,2.04801992 L13.784025,2.09011908 L13.8467471,2.14165577 L13.8937126,2.19427641 L13.9221768,2.23426609 L13.9615725,2.31023984 L13.9827565,2.37313064 L13.9939029,2.42735864 L13.9992413,2.49005552 L13.9993648,6.50127641 L13.9913091,6.59115204 C13.9542651,6.79524509 13.7933334,6.95617677 13.5892404,6.99322074 L13.4993648,7.00127641 L13.4094891,6.99322074 C13.2053961,6.95617677 13.0444644,6.79524509 13.0074204,6.59115204 L12.9993648,6.50127641 L12.9993648,3.70827641 L9.57442099,7.13332695 L9.50517311,7.1911824 C9.33466348,7.30930395 9.10707172,7.30930395 8.9365621,7.1911824 L8.86731421,7.13332695 L8.80945876,7.06407906 C8.69133722,6.89356944 8.69133722,6.66597768 8.80945876,6.49546806 L8.86731421,6.42622017 L12.2923648,3.00127641 L9.49936476,3.00127641 L9.40948912,2.99322074 C9.17623992,2.95088478 8.99936476,2.74673629 8.99936476,2.50127641 C8.99936476,2.25581652 9.17623992,2.05166804 9.40948912,2.00933208 L9.49936476,2.00127641 Z M6.50237045,14.0145181 L2.50237045,14.0145181 L2.43837045,14.0097978 L2.37423131,13.9979073 L2.31177535,13.9769075 L2.27024321,13.9574838 L2.20022653,13.9129354 L2.16123717,13.8800776 L2.11135409,13.8262058 L2.06911183,13.7642626 L2.04016269,13.7055547 L2.01897871,13.6426639 L2.00783232,13.5884359 L2.00415332,13.5569 L2.00237045,9.5145181 L2.01042612,9.42464247 C2.04747008,9.22054941 2.20840176,9.05961773 2.41249482,9.02257377 L2.50237045,9.0145181 L2.59224608,9.02257377 C2.79633914,9.05961773 2.95727082,9.22054941 2.99431478,9.42464247 L3.00237045,9.5145181 L3.00237045,12.3075181 L6.42731421,8.88246755 L6.4965621,8.8246121 C6.66707172,8.70649056 6.89466348,8.70649056 7.06517311,8.8246121 L7.13442099,8.88246755 L7.19227644,8.95171544 C7.31039799,9.12222506 7.31039799,9.34981682 7.19227644,9.52032645 L7.13442099,9.58957434 L3.70937045,13.0145181 L6.50237045,13.0145181 L6.59224608,13.0225738 C6.82549529,13.0649097 7.00237045,13.2690582 7.00237045,13.5145181 C7.00237045,13.759978 6.82549529,13.9641265 6.59224608,14.0064624 L6.50237045,14.0145181 Z"/>
</svg>
