<svg xmlns="http://www.w3.org/2000/svg" width="16" height="16" viewBox="0 0 16 16">
  <path d="M7,9 C7.55228475,9 8,9.44771525 8,10 L8,14 C8,14.5522847 7.55228475,15 7,15 L3,15 C2.44771525,15 2,14.5522847 2,14 L2,10 C2,9.44771525 2.44771525,9 3,9 L7,9 Z M14,9 C14.5522847,9 15,9.44771525 15,10 L15,14 C15,14.5522847 14.5522847,15 14,15 L10,15 C9.44771525,15 9,14.5522847 9,14 L9,10 C9,9.44771525 9.44771525,9 10,9 L14,9 Z M7,10 L3,10 L3,14 L7,14 L7,10 Z M14,10 L10,10 L10,14 L14,14 L14,10 Z M7,2 C7.55228475,2 8,2.44771525 8,3 L8,7 C8,7.55228475 7.55228475,8 7,8 L3,8 C2.44771525,8 2,7.55228475 2,7 L2,3 C2,2.44771525 2.44771525,2 3,2 L7,2 Z M14,2 C14.5522847,2 15,2.44771525 15,3 L15,7 C15,7.55228475 14.5522847,8 14,8 L10,8 C9.44771525,8 9,7.55228475 9,7 L9,3 C9,2.44771525 9.44771525,2 10,2 L14,2 Z M7,3 L3,3 L3,7 L7,7 L7,3 Z M14,3 L10,3 L10,7 L14,7 L14,3 Z"/>
</svg>
