<svg xmlns="http://www.w3.org/2000/svg" width="16" height="16" viewBox="0 0 16 16">
  <path fill-rule="evenodd" d="M9.82010823,1.27741099 C9.97886939,2.60224587 10.5851295,3.78500958 11.4789847,4.6616338 C12.9958368,5.67021382 14,7.41983701 14,9.41010305 C14,11.5744305 12.4143011,13.7853736 10.8562513,14.2888059 L10.6393955,14.3590128 C10.7244463,14.2956628 10.7979438,14.2247799 10.8562513,14.1456057 C11.1757326,13.7117907 11.3796233,13.0971666 11.4679236,12.3017333 C11.6395501,10.7556741 11.1224535,9.27912865 9.91663384,7.87209691 C9.85963238,7.80558377 9.75491275,7.83886953 9.76125423,7.91913671 L9.79744592,8.42685979 C9.86289773,9.47036693 9.84408653,10.1462372 9.74101234,10.4544705 C9.49449715,11.1916502 9.06396689,11.7332736 8.58973816,11.7630692 C7.84344604,11.8099585 7.29774382,11.4939457 6.95263151,10.8150307 C6.9210129,10.7528297 6.79574228,10.7571656 6.76595359,10.8264845 C6.4465023,11.5698538 6.41483372,12.3423994 6.67094785,13.1441213 C6.80236393,13.5554971 7.02972526,13.9259142 7.35303183,14.2553727 C7.58601396,14.4927881 7.99040689,14.7235921 8.49687835,14.8053869 C7.86465429,14.8275727 7.20102142,14.7261898 6.41157126,14.4351314 C4.65779274,13.7885395 3,11.6983354 3,9.41010305 C3,7.87192662 3.59978328,6.47748535 4.57247519,5.45956237 C4.60936269,5.42095957 4.66705886,5.38488804 4.71888733,5.39082426 C4.78249048,5.39810909 4.8377898,5.45717297 4.84148264,5.51168959 C4.93025937,6.82228001 5.33854427,7.84130762 6.19231704,8.68147184 C6.28909304,8.7767053 6.35859168,8.71333575 6.30136731,8.59132911 C5.96091231,7.86545362 5.92364758,7.16176256 5.92364758,6.22486494 C5.92364758,4.06882323 7.10205743,2.19518174 8.83408005,1.2450091 L9.03635013,1.1395085 C9.5,0.871005918 9.78800215,1.03053432 9.82010823,1.27741099 Z"/>
</svg>
