<svg xmlns="http://www.w3.org/2000/svg" width="16" height="16" viewBox="0 0 16 16">
  <path d="M14,2 C14.5522847,2 15,2.44771525 15,3 L15,13 C15,13.5522847 14.5522847,14 14,14 L2,14 C1.44771525,14 1,13.5522847 1,13 L1,3 C1,2.44771525 1.44771525,2 2,2 L14,2 Z M9.73841513,7.70860995 L6.28026355,11.1814486 C6.10654612,11.3559039 5.83619086,11.3752878 5.64099835,11.2396004 L5.57165997,11.1814486 L4.61730784,10.2230433 L2,12.848 L2,13 L14,13 L14,11.984 L9.73841513,7.70860995 Z M14,3 L2,3 L2,11.433 L4.26300605,9.16162993 C4.43672348,8.98717471 4.70707874,8.96779079 4.90227124,9.10347819 L4.97160963,9.16162993 L5.92596176,10.1200353 L9.38411333,6.6471966 C9.55783077,6.47274137 9.82818602,6.45335746 10.0233785,6.58904486 L10.0927169,6.6471966 L14,10.571 L14,3 Z M5,5 C5.55228475,5 6,5.44771525 6,6 C6,6.55228475 5.55228475,7 5,7 C4.44771525,7 4,6.55228475 4,6 C4,5.44771525 4.44771525,5 5,5 Z"/>
</svg>
