<svg xmlns="http://www.w3.org/2000/svg" width="16" height="16" viewBox="0 0 16 16">
  <path fill-rule="evenodd" d="M8,1 C11.8659932,1 15,4.13400675 15,8 C15,11.8659932 11.8659932,15 8,15 C4.13400675,15 1,11.8659932 1,8 C1,4.13400675 4.13400675,1 8,1 Z M8.30163718,10.5595183 C8.14108673,10.7430046 8.00347205,10.8347477 7.91172893,10.8347477 C7.86585737,10.8347477 7.84292159,10.8347477 7.79705003,10.8118119 C7.75117847,10.7888761 7.75117847,10.7430046 7.75117847,10.6741972 C7.75117847,10.6053899 7.77411425,10.4219037 7.84292159,10.1696101 C7.86585737,10.077867 7.91172893,9.89438073 7.98053627,9.64208716 L8.80622434,6.6375 L8.34750874,6.72924312 C8.18695829,6.7521789 7.91172893,6.79805046 7.54475645,6.84392202 C7.15484819,6.88979358 6.87961884,6.91272936 6.67319682,6.93566514 L6.67319682,7.2108945 C6.90255462,7.2108945 7.06310507,7.23383028 7.15484819,7.27970183 C7.24659131,7.32557339 7.29246287,7.39438073 7.29246287,7.53199541 L7.29246287,7.60080275 C7.29246287,7.62373853 7.29246287,7.64667431 7.26952709,7.69254587 L6.62732526,10.077867 C6.5814537,10.2613532 6.53558214,10.3989679 6.51264636,10.490711 C6.4667748,10.6741972 6.44383902,10.8118119 6.44383902,10.903555 C6.44383902,11.1558486 6.51264636,11.3393349 6.67319682,11.4540138 C6.83374728,11.5686927 6.99429774,11.6375 7.20071975,11.6375 C7.54475645,11.6375 7.86585737,11.4998853 8.16402251,11.2017202 C8.34750874,11.0182339 8.59980232,10.6741972 8.94383902,10.1696101 L8.71448122,10.0090596 C8.59980232,10.1925459 8.43925186,10.3760321 8.30163718,10.5595183 L8.30163718,10.5595183 Z M8.19383902,4.3625 C7.97609708,4.3625 7.80674225,4.43508065 7.66158095,4.58024194 C7.51641966,4.72540323 7.44383902,4.89475806 7.44383902,5.1125 C7.44383902,5.33024194 7.51641966,5.49959677 7.66158095,5.64475806 C7.80674225,5.78991935 7.97609708,5.8625 8.19383902,5.8625 C8.41158095,5.8625 8.58093579,5.78991935 8.72609708,5.64475806 C8.87125837,5.49959677 8.94383902,5.33024194 8.94383902,5.1125 C8.94383902,4.89475806 8.87125837,4.72540323 8.72609708,4.58024194 C8.58093579,4.43508065 8.41158095,4.3625 8.19383902,4.3625 L8.19383902,4.3625 Z"/>
</svg>
