<svg xmlns="http://www.w3.org/2000/svg" width="16" height="16" viewBox="0 0 16 16">
  <path d="M15.2600734,5.57259215 C15.4961243,5.71589118 15.5713145,6.02341501 15.4280154,6.25946585 C14.6700151,7.50808993 13.6396147,8.53086572 12.4371768,9.25891642 L13.4472136,11.2763932 C13.5707082,11.5233825 13.470596,11.823719 13.2236068,11.9472136 C12.9766175,12.0707082 12.676281,11.970596 12.5527864,11.7236068 L11.5535036,9.72647693 C10.6039706,10.1604606 9.57266977,10.4228424 8.50072277,10.4854015 L8.50030378,12 C8.50030378,12.2761424 8.27644616,12.5 8.00030378,12.5 C7.7548439,12.5 7.55069541,12.3231248 7.50835945,12.0898756 L7.50030378,12 L7.50029932,10.4854609 C6.42787566,10.4230025 5.39609885,10.1605466 4.44618598,9.72637946 L3.4472136,11.7236068 C3.32371897,11.970596 3.02338245,12.0707082 2.7763932,11.9472136 C2.5568472,11.8374406 2.45335223,11.5879407 2.51979801,11.360383 L2.5527864,11.2763932 L3.56276325,9.2574459 C2.36066268,8.53123156 1.3303523,7.50867995 0.572590638,6.26043272 C0.429292979,6.02438105 0.504484963,5.71685765 0.740536636,5.57355999 C0.976588308,5.43026233 1.2841117,5.50545432 1.42740936,5.74150599 C2.83657691,8.0628025 5.29931567,9.49998418 8,9.49998418 C10.7008256,9.49998418 13.163495,8.06268507 14.5731997,5.74053415 C14.7164987,5.50448331 15.0240226,5.42929312 15.2600734,5.57259215 Z"/>
</svg>
