<svg xmlns="http://www.w3.org/2000/svg" width="16" height="16" viewBox="0 0 16 16">
  <path fill-rule="evenodd" d="M3.04284999,11.7539792 C3.45706355,11.7539792 3.79284999,12.0897657 3.79284999,12.5039792 C3.79284999,12.9181928 3.45706355,13.2539792 3.04284999,13.2539792 C2.62863642,13.2539792 2.29284999,12.9181928 2.29284999,12.5039792 C2.29284999,12.0897657 2.62863642,11.7539792 3.04284999,11.7539792 Z M13.2452309,11.9991837 C13.5082237,11.9991837 13.7214214,12.2184728 13.7214214,12.4889796 C13.7214214,12.7594864 13.5082237,12.9787755 13.2452309,12.9787755 L5.62618332,12.9787755 C5.36319058,12.9787755 5.14999284,12.7594864 5.14999284,12.4889796 C5.14999284,12.2184728 5.36319058,11.9991837 5.62618332,11.9991837 L13.2452309,11.9991837 Z M3.04284999,7.28129101 C3.45706355,7.28129101 3.79284999,7.61707745 3.79284999,8.03129101 C3.79284999,8.44550458 3.45706355,8.78129101 3.04284999,8.78129101 C2.62863642,8.78129101 2.29284999,8.44550458 2.29284999,8.03129101 C2.29284999,7.61707745 2.62863642,7.28129101 3.04284999,7.28129101 Z M13.2452309,7.49959184 C13.5082237,7.49959184 13.7214214,7.71888094 13.7214214,7.98938776 C13.7214214,8.25989457 13.5082237,8.47918367 13.2452309,8.47918367 L5.62618332,8.47918367 C5.36319058,8.47918367 5.14999284,8.25989457 5.14999284,7.98938776 C5.14999284,7.71888094 5.36319058,7.49959184 5.62618332,7.49959184 L13.2452309,7.49959184 Z M3.04284999,2.72479629 C3.45706355,2.72479629 3.79284999,3.06058273 3.79284999,3.47479629 C3.79284999,3.88900985 3.45706355,4.22479629 3.04284999,4.22479629 C2.62863642,4.22479629 2.29284999,3.88900985 2.29284999,3.47479629 C2.29284999,3.06058273 2.62863642,2.72479629 3.04284999,2.72479629 Z M13.2452309,3 C13.5082237,3 13.7214214,3.2192891 13.7214214,3.48979592 C13.7214214,3.76030273 13.5082237,3.97959184 13.2452309,3.97959184 L5.62618332,3.97959184 C5.36319058,3.97959184 5.14999284,3.76030273 5.14999284,3.48979592 C5.14999284,3.2192891 5.36319058,3 5.62618332,3 L13.2452309,3 Z"/>
</svg>
