<svg xmlns="http://www.w3.org/2000/svg" width="16" height="16" viewBox="0 0 16 16">
  <path d="M8.5,1 C11.4634791,1 14,3.40079084 14,6.54517512 C14,9.11893764 12.3840799,11.7591404 9.15223979,14.5964966 L8.82370579,14.8807877 C8.63697365,15.0400112 8.36341454,15.0397045 8.17703409,14.8800626 C4.72567803,11.9238463 3,9.14558249 3,6.54527116 C3.00162329,3.48106615 5.46343505,1 8.5,1 Z M8.5,2.00823112 C6.01525692,2.00823112 4.00132814,4.03848155 4,6.54527116 C4,8.71706309 5.47037984,11.1575419 8.50144915,13.8309477 C11.5323159,11.1685417 13,8.72957485 13,6.54517512 C13,4.03948123 10.9852496,2.00823112 8.5,2.00823112 Z M8.5,4.02469336 C9.88071187,4.02469336 11,5.15319448 11,6.54527116 C11,7.93734785 9.88071187,9.06584897 8.5,9.06584897 C7.11928813,9.06584897 6,7.93734785 6,6.54527116 C6,5.15319448 7.11928813,4.02469336 8.5,4.02469336 Z M8.5,5.03292448 C7.67157288,5.03292448 7,5.71002516 7,6.54527116 C7,7.38051717 7.67157288,8.05761785 8.5,8.05761785 C9.32842712,8.05761785 10,7.38051717 10,6.54527116 C10,5.71002516 9.32842712,5.03292448 8.5,5.03292448 Z"/>
</svg>
