<svg xmlns="http://www.w3.org/2000/svg" width="16" height="16" viewBox="0 0 16 16">
  <path fill-rule="evenodd" d="M8.6453125,8.646875 C8.840625,8.4515625 9.1578125,8.4515625 9.353125,8.646875 L9.353125,8.646875 L14.853125,14.146875 C15.0484375,14.3421875 15.0484375,14.6578125 14.853125,14.8546875 C14.6578125,15.05 14.340625,15.05 14.1453125,14.8546875 L14.1453125,14.8546875 L8.6453125,9.3546875 C8.45,9.159375 8.45,8.8421875 8.6453125,8.646875 Z M6.5,9 C6.7765625,9 7,9.2234375 7,9.5 L7,9.5 L7,11.5 C7,11.7765625 6.7765625,12 6.5,12 C6.2234375,12 6,11.7765625 6,11.5 L6,11.5 L6,9.5 C6,9.2234375 6.2234375,9 6.5,9 Z M3.646875,8.646875 C3.8421875,8.4515625 4.1578125,8.4515625 4.3546875,8.646875 C4.55,8.8421875 4.55,9.159375 4.3546875,9.3546875 L4.3546875,9.3546875 L2.8546875,10.8546875 C2.659375,11.05 2.3421875,11.05 2.146875,10.8546875 C1.9515625,10.659375 1.9515625,10.3421875 2.146875,10.146875 L2.146875,10.146875 Z M3.5,6 C3.7765625,6 4,6.2234375 4,6.5 C4,6.7765625 3.7765625,7 3.5,7 L3.5,7 L1.5,7 C1.2234375,7 1,6.7765625 1,6.5 C1,6.2234375 1.2234375,6 1.5,6 L1.5,6 Z M11.5,6 C11.7765625,6 12,6.2234375 12,6.5 C12,6.7765625 11.7765625,7 11.5,7 L11.5,7 L9.5,7 C9.2234375,7 9,6.7765625 9,6.5 C9,6.2234375 9.2234375,6 9.5,6 L9.5,6 Z M2.1453125,2.146875 C2.340625,1.9515625 2.6578125,1.9515625 2.853125,2.146875 L2.853125,2.146875 L4.353125,3.646875 C4.5484375,3.8421875 4.5484375,4.159375 4.353125,4.3546875 C4.1578125,4.55 3.840625,4.55 3.6453125,4.3546875 L3.6453125,4.3546875 L2.1453125,2.8546875 C1.95,2.659375 1.95,2.3421875 2.1453125,2.146875 Z M10.1453125,2.1453125 C10.340625,1.95 10.6578125,1.95 10.853125,2.1453125 C11.0484375,2.340625 11.0484375,2.6578125 10.853125,2.853125 L10.853125,2.853125 L9.353125,4.353125 C9.1578125,4.5484375 8.8421875,4.5484375 8.6453125,4.353125 C8.45,4.1578125 8.45,3.840625 8.6453125,3.6453125 L8.6453125,3.6453125 Z M6.5,1 C6.7765625,1 7,1.2234375 7,1.5 L7,1.5 L7,3.5 C7,3.7765625 6.7765625,4 6.5,4 C6.2234375,4 6,3.7765625 6,3.5 L6,3.5 L6,1.5 C6,1.2234375 6.2234375,1 6.5,1 Z"/>
</svg>
