<svg xmlns="http://www.w3.org/2000/svg" width="16" height="16" viewBox="0 0 16 16">
  <path fill-rule="evenodd" d="M13.5327466,5.8623406 L14.9469602,7.27655416 C15.1422223,7.47181631 15.1422223,7.7883988 14.9469602,7.98366094 L9.05440367,13.8762175 C8.97790525,13.9527159 8.87865875,14.0023391 8.77156096,14.0176388 L7.12164514,14.2533411 C6.84827813,14.2923935 6.59501214,14.102444 6.55595971,13.829077 C6.54925938,13.7821746 6.54925938,13.734558 6.55595971,13.6876556 L6.79166197,12.0377398 C6.80696166,11.930642 6.85658491,11.8313955 6.93308333,11.7548971 L12.8256398,5.8623406 C13.020902,5.66707845 13.3374845,5.66707845 13.5327466,5.8623406 Z M13.1791932,6.92300077 L7.75804124,12.3441528 L7.64019011,13.1691107 L8.46514802,13.0512595 L13.8863,7.63010755 L13.1791932,6.92300077 Z M1.75,9.74157 C2.16421356,9.74157 2.5,10.0773564 2.5,10.49157 C2.5,10.9057836 2.16421356,11.24157 1.75,11.24157 C1.33578644,11.24157 1,10.9057836 1,10.49157 C1,10.0773564 1.33578644,9.74157 1.75,9.74157 Z M6.00433248,9.99157 C6.28047486,9.99157 6.50433248,10.2154276 6.50433248,10.49157 C6.50433248,10.7677124 6.28047486,10.99157 6.00433248,10.99157 L4.00433248,10.99157 C3.72819011,10.99157 3.50433248,10.7677124 3.50433248,10.49157 C3.50433248,10.2154276 3.72819011,9.99157 4.00433248,9.99157 L6.00433248,9.99157 Z M1.75,5.74157 C2.16421356,5.74157 2.5,6.07735643 2.5,6.49157 C2.5,6.90578356 2.16421356,7.24157 1.75,7.24157 C1.33578644,7.24157 1,6.90578356 1,6.49157 C1,6.07735643 1.33578644,5.74157 1.75,5.74157 Z M9.50433248,5.99157 C9.78047486,5.99157 10.0043325,6.21542762 10.0043325,6.49157 C10.0043325,6.76771237 9.78047486,6.99157 9.50433248,6.99157 L4.00433248,6.99157 C3.72819011,6.99157 3.50433248,6.76771237 3.50433248,6.49157 C3.50433248,6.21542762 3.72819011,5.99157 4.00433248,5.99157 L9.50433248,5.99157 Z M1.75,1.74157 C2.16421356,1.74157 2.5,2.07735643 2.5,2.49157 C2.5,2.90578356 2.16421356,3.24157 1.75,3.24157 C1.33578644,3.24157 1,2.90578356 1,2.49157 C1,2.07735643 1.33578644,1.74157 1.75,1.74157 Z M12.0043325,1.99157 C12.2804749,1.99157 12.5043325,2.21542762 12.5043325,2.49157 C12.5043325,2.76771237 12.2804749,2.99157 12.0043325,2.99157 L4.00433248,2.99157 C3.72819011,2.99157 3.50433248,2.76771237 3.50433248,2.49157 C3.50433248,2.21542762 3.72819011,1.99157 4.00433248,1.99157 L12.0043325,1.99157 Z"/>
</svg>
