<svg xmlns="http://www.w3.org/2000/svg" viewBox="0 0 16 16"><path d="M8.536.156l4 2.538a1 1 0 01.464.844v10.458a1 1 0 01-1 1H4a1 1 0 01-1-1V3.538a1 1 0 01.464-.844l4-2.538a1 1 0 011.072 0zM8 .999L4 3.538v10.458h8V3.538L8 .999zm1.32 8.204c.214 0 .4.031.56.094.161.062.293.146.397.252.105.105.183.23.235.373.034.095.058.194.07.297l.008.156v.3l-.009.159a1.268 1.268 0 01-.07.297c-.051.142-.13.265-.234.371-.104.105-.235.19-.392.252a1.505 1.505 0 01-.557.094 1.51 1.51 0 01-.555-.094 1.165 1.165 0 01-.398-.252 1.02 1.02 0 01-.24-.371 1.243 1.243 0 01-.071-.297l-.01-.158v-.301l.01-.156c.011-.103.035-.202.07-.297.054-.143.134-.268.239-.373.106-.106.238-.19.397-.252.158-.063.342-.094.55-.094zm-.463-2.322a.377.377 0 01.412-.165l.09.035.012.007a.313.313 0 01.13.366l-.03.066-2.414 3.863a.376.376 0 01-.489.136l-.025-.014a.313.313 0 01-.13-.366l.03-.065 2.414-3.863zm.463 3.033a.437.437 0 00-.185.037.37.37 0 00-.133.102.427.427 0 00-.078.148l-.02.086-.006.088v.3l.004.06a.47.47 0 00.121.263c.04.043.085.077.137.102a.386.386 0 00.168.037c.089 0 .16-.013.215-.037a.302.302 0 00.127-.102.356.356 0 00.059-.148l.01-.086.003-.088v-.301l-.006-.088-.02-.086a.427.427 0 00-.077-.148.37.37 0 00-.133-.102.437.437 0 00-.186-.037zM6.617 6c.214 0 .4.031.559.094a1.042 1.042 0 01.629.627c.034.094.058.193.07.297l.008.158v.3l-.009.157c-.011.102-.035.2-.07.295-.051.142-.13.265-.234.37-.104.106-.235.19-.392.253a1.494 1.494 0 01-.553.094 1.51 1.51 0 01-.555-.094 1.165 1.165 0 01-.398-.252 1.02 1.02 0 01-.24-.371 1.242 1.242 0 01-.072-.295l-.008-.156v-.301l.008-.158c.012-.104.036-.203.072-.297a1.052 1.052 0 01.634-.627C6.226 6.03 6.41 6 6.617 6zm0 .71a.424.424 0 00-.183.038.374.374 0 00-.131.102.427.427 0 00-.078.148l-.02.086-.006.092v.3l.007.088.019.084a.43.43 0 00.078.147.37.37 0 00.133.101.447.447 0 00.189.038c.07 0 .132-.013.184-.038a.338.338 0 00.127-.101.47.47 0 00.074-.147l.019-.084.006-.087v-.301l-.006-.092-.02-.086a.446.446 0 00-.075-.148.352.352 0 00-.131-.102.437.437 0 00-.186-.037z"/></svg>