<svg xmlns="http://www.w3.org/2000/svg" width="92" height="78" viewBox="0 0 92 78">
  <g fill="none" fill-rule="evenodd" transform="translate(0 -8)">
    <rect width="96" height="96"/>
    <ellipse cx="45" cy="80" fill="#F2F2F2" rx="45" ry="6"/>
    <g transform="translate(3 8)">
      <path fill="#FAFAFA" stroke="#D8D8D8" d="M9.86364975,6.23372189 C9.32831703,6.26626431 9.21265861,6.35761218 9.04872955,6.80137062 C7.64239685,9.91955778 5.75090769,14.6188461 1.24589472,26.1688419 C1.02756173,26.7403011 0.877556725,27.3487643 0.784611819,27.9521037 C0.769896569,28.0476258 0.757397169,28.1371797 0.746871935,28.22 L81.6461371,28.22 C81.6428553,28.1947223 81.6394266,28.1688393 81.6358389,28.1423795 C81.573157,27.6800964 81.4837381,27.2184672 81.3639109,26.7918372 C81.3017523,26.5705295 81.2329027,26.3646347 81.1583069,26.1794729 C80.3238723,24.1367827 74.4259175,9.10319579 73.4087304,6.96437103 C73.0944071,6.34025242 72.8889394,6.23382404 72.0734742,6.23381571 C68.6576575,6.25353206 60.8196848,6.25166782 41.1546181,6.23443987 C40.8032413,6.23413195 40.8032413,6.23413195 40.4519144,6.23382384 C19.9728972,6.21586314 12.7632711,6.2138866 9.86364975,6.23372189 Z"/>
      <g fill="#D8D8D8" transform="translate(76)">
        <circle cx="7.8" cy="10.28" r="3" opacity=".5"/>
        <circle cx="2" cy="3" r="2" opacity=".3"/>
        <path fill-rule="nonzero" d="M10.5,1 C9.67157288,1 9,1.67157288 9,2.5 C9,3.32842712 9.67157288,4 10.5,4 C11.3284271,4 12,3.32842712 12,2.5 C12,1.67157288 11.3284271,1 10.5,1 Z M10.5,7.10542736e-15 C11.8807119,7.10542736e-15 13,1.11928813 13,2.5 C13,3.88071187 11.8807119,5 10.5,5 C9.11928813,5 8,3.88071187 8,2.5 C8,1.11928813 9.11928813,7.10542736e-15 10.5,7.10542736e-15 Z" opacity=".3"/>
      </g>
      <path fill="#FFF" stroke="#D8D8D8" d="M1.16470588,28.22 C0.909310933,28.22 0.7,28.4275352 0.7,28.6765217 L0.7,70.7634783 C0.7,71.0124648 0.909310933,71.22 1.16470588,71.22 L81.2352941,71.22 C81.4906891,71.22 81.7,71.0124648 81.7,70.7634783 L81.7,28.6765217 C81.7,28.4275352 81.4906891,28.22 81.2352941,28.22 L1.16470588,28.22 Z"/>
      <path fill="#FFF" stroke="#D8D8D8" d="M35.7,5.22 L35.7,42.9285245 L42.2,39.8370611 L48.7,42.9285245 L48.7,5.22 L35.7,5.22 Z"/>
      <rect width="12" height="1" x="6.2" y="33.72" fill="#D8D8D8" rx=".5"/>
      <rect width="6" height="1" x="6.2" y="37.72" fill="#D8D8D8" rx=".5"/>
    </g>
  </g>
</svg>
