<svg xmlns="http://www.w3.org/2000/svg" width="90" height="88" viewBox="0 0 90 88">
  <g fill="none" fill-rule="evenodd" transform="translate(-12 -15)">
    <rect width="96" height="96" x="9" y="12" fill="#D8D8D8" opacity="0"/>
    <ellipse cx="57" cy="97" fill="#F2F2F2" rx="45" ry="6"/>
    <g fill="#D8D8D8" transform="translate(88.2 19.72)">
      <circle cx="7.8" cy="10.28" r="3" opacity=".5"/>
      <circle cx="2" cy="3" r="2" opacity=".3"/>
      <path fill-rule="nonzero" d="M10.5,1 C9.67157288,1 9,1.67157288 9,2.5 C9,3.32842712 9.67157288,4 10.5,4 C11.3284271,4 12,3.32842712 12,2.5 C12,1.67157288 11.3284271,1 10.5,1 Z M10.5,7.10542736e-15 C11.8807119,7.10542736e-15 13,1.11928813 13,2.5 C13,3.88071187 11.8807119,5 10.5,5 C9.11928813,5 8,3.88071187 8,2.5 C8,1.11928813 9.11928813,7.10542736e-15 10.5,7.10542736e-15 Z" opacity=".3"/>
    </g>
    <g stroke="#D8D8D8" transform="rotate(-45 58.778 23.737)">
      <path fill="#FAFAFA" d="M35.4142136,67.9142136 L35.4142136,85.4142136 C35.4142136,86.5187831 34.7426407,87.4142136 33.9142136,87.4142136 C33.0857864,87.4142136 32.4142136,86.5187831 32.4142136,85.4142136 L32.4142136,67.9142136"/>
      <circle cx="34" cy="34.686" r="33.5" fill="#FAFAFA"/>
      <circle cx="34" cy="34.686" r="29.5" fill="#FFF"/>
    </g>
    <path fill="#FAFAFA" fill-rule="nonzero" stroke="#D8D8D8" d="M48.0491673,58.2185685 C49.6238763,58.2185685 50.9004302,59.4951224 50.9004302,61.0698314 C50.9004302,62.6445404 49.6238763,63.9210943 48.0491673,63.9210943 C46.4744583,63.9210943 45.1979044,62.6445404 45.1979044,61.0698314 C45.1979044,59.4951224 46.4744583,58.2185685 48.0491673,58.2185685 Z M48.167209,33.5 C52.9455253,33.5 56.834418,37.3888927 56.834418,42.167209 C56.834418,44.7914335 55.8234091,46.5453458 53.8232444,48.2976729 C53.5867168,48.5048927 53.398235,48.6623757 52.9868051,49.0005196 C50.8564755,50.7509179 50.3006508,51.561324 50.3006508,53.6013016 C50.3006508,54.7809415 49.3468489,55.7347434 48.167209,55.7347434 C46.9875691,55.7347434 46.0337672,54.7809415 46.0337672,53.6013016 C46.0337672,49.9886131 47.2436448,48.1948253 50.279015,45.7066788 C52.1512046,44.1641829 52.5675344,43.5736352 52.5675344,42.167209 C52.5675344,39.7379634 50.5964546,37.7668836 48.167209,37.7668836 C45.7379634,37.7668836 43.7668836,39.7379634 43.7668836,42.167209 C43.7668836,43.3468489 42.8130817,44.3006508 41.6334418,44.3006508 C40.4538019,44.3006508 39.5,43.3468489 39.5,42.167209 C39.5,37.3888927 43.3888927,33.5 48.167209,33.5 Z"/>
  </g>
</svg>
