<svg xmlns="http://www.w3.org/2000/svg" width="96" height="89" viewBox="0 0 96 89">
  <g fill="none" fill-rule="evenodd">
    <rect width="96" height="96"/>
    <g fill="#D8D8D8" transform="translate(83)">
      <circle cx="10" cy="13" r="3" opacity=".5"/>
      <circle cx="2" cy="9" r="2" opacity=".3"/>
      <path d="M8.5,1 C7.67157288,1 7,1.67157288 7,2.5 C7,3.32842712 7.67157288,4 8.5,4 C9.32842712,4 10,3.32842712 10,2.5 C10,1.67157288 9.32842712,1 8.5,1 Z M8.5,7.10542736e-15 C9.88071187,7.10542736e-15 11,1.11928813 11,2.5 C11,3.88071187 9.88071187,5 8.5,5 C7.11928813,5 6,3.88071187 6,2.5 C6,1.11928813 7.11928813,7.10542736e-15 8.5,7.10542736e-15 Z" opacity=".3"/>
    </g>
    <ellipse cx="45" cy="84" fill="#F2F2F2" rx="45" ry="5"/>
    <path fill="#FFF" stroke="#D8D8D8" d="M11.6781498,83.5 L71.7869785,83.5 C73.7199751,83.5 75.2869785,81.9329966 75.2869785,80 L75.2869785,13.5637743 L75.3070967,13.4233697 L77.3327476,6.5 L19.2928292,6.5 C16.2552631,6.5 13.7928292,8.96243388 13.7928292,12 L13.7928292,76.5918207 L13.7704754,76.739652 L11.6781498,83.5 Z"/>
    <path fill="#D8D8D8" d="M23.5 29L65.5 29C65.7761424 29 66 29.2238576 66 29.5 66 29.7761424 65.7761424 30 65.5 30L23.5 30C23.2238576 30 23 29.7761424 23 29.5 23 29.2238576 23.2238576 29 23.5 29zM23.5 20L65.5 20C65.7761424 20 66 20.2238576 66 20.5 66 20.7761424 65.7761424 21 65.5 21L23.5 21C23.2238576 21 23 20.7761424 23 20.5 23 20.2238576 23.2238576 20 23.5 20zM23.5 38L46.5 38C46.7761424 38 47 38.2238576 47 38.5 47 38.7761424 46.7761424 39 46.5 39L23.5 39C23.2238576 39 23 38.7761424 23 38.5 23 38.2238576 23.2238576 38 23.5 38z"/>
    <path fill="#F4F4F4" stroke="#DBDBDB" d="M75.3,13.5 L80.3,13.5 L80.3,9 C80.3,7.61928813 79.1807119,6.5 77.8,6.5 C76.4192881,6.5 75.3,7.61928813 75.3,9 L75.3,13.5 Z"/>
    <path fill="#FFF" stroke="#D8D8D8" d="M74.2748737,82.4748737 C73.6414983,83.1082492 72.7664983,83.5 71.8,83.5 C69.8670034,83.5 68.3,81.9329966 68.3,80 L68.3,77.5 L8.3,77.5 L8.3,81 C8.3,82.3807119 9.41928813,83.5 10.8,83.5 L71.8,83.5 C72.7664983,83.5 73.6414983,83.1082492 74.2748737,82.4748737 Z"/>
  </g>
</svg>
