<svg xmlns="http://www.w3.org/2000/svg" width="92" height="86" viewBox="0 0 92 86">
  <g fill="none" fill-rule="evenodd" transform="translate(-4 -4)">
    <rect width="96" height="96"/>
    <ellipse cx="49" cy="85" fill="#F2F2F2" rx="45" ry="5"/>
    <rect width="34" height="15" x="34.5" y="24.5" fill="#FAFAFA" stroke="#D8D8D8" rx="2" transform="rotate(30 51.5 32)"/>
    <rect width="33" height="15" x="25.5" y="25.5" fill="#FAFAFA" stroke="#D8D8D8" rx="2" transform="rotate(15 42 33)"/>
    <path fill="#FFF" stroke="#D8D8D8" d="M13.5,42.5164023 C17.4090159,42.7736953 20.5,46.0258787 20.5,50 C20.5,53.9741213 17.4090159,57.2263047 13.5,57.4835977 L13.5,73 C13.5,73.8284271 14.1715729,74.5 15,74.5 L83,74.5 C83.8284271,74.5 84.5,73.8284271 84.5,72.9999686 L84.5009752,57.483515 C84.3347628,57.4944876 84.1677086,57.5 84,57.5 C79.8578644,57.5 76.5,54.1421356 76.5,50 C76.5,45.8578644 79.8578644,42.5 84,42.5 C84.1677086,42.5 84.3347628,42.5055124 84.5009752,42.516485 L84.5,27 C84.5,26.1715729 83.8284271,25.5 83,25.5 L15,25.5 C14.1715729,25.5 13.5,26.1715729 13.5,27 L13.5,42.5164023 Z"/>
    <path fill="#D8D8D8" d="M71.5,59 C71.7761424,59 72,59.2238576 72,59.5 C72,59.7761424 71.7761424,60 71.5,60 L40.5,60 C40.2238576,60 40,59.7761424 40,59.5 C40,59.2238576 40.2238576,59 40.5,59 L71.5,59 Z M59.5,49 C59.7761424,49 60,49.2238576 60,49.5 C60,49.7761424 59.7761424,50 59.5,50 L40.5,50 C40.2238576,50 40,49.7761424 40,49.5 C40,49.2238576 40.2238576,49 40.5,49 L59.5,49 Z M71.5,39 C71.7761424,39 72,39.2238576 72,39.5 C72,39.7761424 71.7761424,40 71.5,40 L40.5,40 C40.2238576,40 40,39.7761424 40,39.5 C40,39.2238576 40.2238576,39 40.5,39 L71.5,39 Z"/>
    <line x1="28.5" x2="28.5" y1="26" y2="75" stroke="#D8D8D8" stroke-dasharray="4"/>
    <g fill="#D8D8D8" transform="translate(82.16 4.04)">
      <circle cx="10" cy="13" r="3" opacity=".5"/>
      <circle cx="2" cy="9" r="2" opacity=".3"/>
      <path d="M8.5,1 C7.67157288,1 7,1.67157288 7,2.5 C7,3.32842712 7.67157288,4 8.5,4 C9.32842712,4 10,3.32842712 10,2.5 C10,1.67157288 9.32842712,1 8.5,1 Z M8.5,7.10542736e-15 C9.88071187,7.10542736e-15 11,1.11928813 11,2.5 C11,3.88071187 9.88071187,5 8.5,5 C7.11928813,5 6,3.88071187 6,2.5 C6,1.11928813 7.11928813,7.10542736e-15 8.5,7.10542736e-15 Z" opacity=".3"/>
    </g>
  </g>
</svg>
