<svg xmlns="http://www.w3.org/2000/svg" width="16" height="16" viewBox="0 0 16 16">
  <path d="M14.5824678,5.27561285 C14.229699,4.44154703 13.7237902,3.69362242 13.0811494,3.05098154 C12.4385085,2.40834066 11.6905839,1.90243188 10.856518,1.54966305 C9.99373848,1.18458834 9.07626607,1 8.13144724,1 C7.18662841,1 6.269156,1.18458834 5.40637643,1.54966305 C4.5723106,1.90243188 3.824386,2.40834066 3.18174512,3.05098154 C2.53910423,3.69362242 2.03319545,4.44154703 1.68042663,5.27561285 C1.31535192,6.13839242 1.13076358,7.05586483 1.13076358,8.00068366 C1.13076358,8.94550249 1.31535192,9.8629749 1.68042663,10.7257545 C2.03319545,11.5598203 2.53910423,12.3077449 3.18174512,12.9503858 C3.824386,13.5930267 4.57367792,14.0975681 5.40637643,14.4503369 C6.269156,14.8154117 7.18662841,15 8.13144724,15 C9.07626607,15 9.99373848,14.8154117 10.856518,14.4503369 C11.6905839,14.0989354 12.4385085,13.5930267 13.0811494,12.9503858 C13.7237902,12.3077449 14.2283317,11.558453 14.5811005,10.7257545 C14.9461752,9.8629749 15.1307636,8.94550249 15.1307636,8.00068366 C15.1307636,7.05586483 14.9475426,6.13839242 14.5824678,5.27561285 Z M8.13144724,11.9385682 C7.64878291,11.9385682 7.25636178,11.5461471 7.25636178,11.0634828 C7.25636178,10.5808184 7.64878291,10.1883973 8.13144724,10.1883973 C8.61411156,10.1883973 9.00653269,10.5808184 9.00653269,11.0634828 C9.00653269,11.5461471 8.61411156,11.9385682 8.13144724,11.9385682 Z M9.00653269,4.93514992 C9.00653269,4.93651724 9.00653269,4.93651724 9.00653269,4.93514992 L9.00653269,4.94745581 C9.00653269,4.99941401 9.00106341,5.05000488 8.99149216,5.09922844 L8.56625532,8.92362535 C8.54164355,9.14513136 8.35432056,9.31331185 8.13144724,9.31331185 C7.90857391,9.31331185 7.72125093,9.14513136 7.69663915,8.92499268 L7.27140231,5.10059576 C7.26183106,5.0513722 7.25636178,5.00078133 7.25636178,4.94882313 L7.25636178,4.9146401 C7.26866767,4.44291435 7.65561952,4.06143178 8.13144724,4.06143178 C8.60727495,4.06143178 8.99422681,4.44154703 9.00653269,4.9146401 L9.00653269,4.93514992 Z"/>
</svg>
