<svg xmlns="http://www.w3.org/2000/svg" width="16" height="16" viewBox="0 0 16 16">
  <path d="M13.5062497,1 C13.7517096,1 13.9558581,1.17687516 13.9981941,1.41012437 L14.0062497,1.5 L14.0062497,6.49725382 C14.0062497,6.77339619 13.7823921,6.99725382 13.5062497,6.99725382 C13.2607898,6.99725382 13.0566414,6.82037866 13.0143054,6.58712945 L13.0062497,6.49725382 L13.0062497,2 L1.99266425,2 L1.99266425,14.0017649 L6.83353019,14.0017649 C7.10967257,14.0017649 7.33353019,14.2256225 7.33353019,14.5017649 C7.33353019,14.7472248 7.15665503,14.9513732 6.92340582,14.9937092 L6.83353019,15.0017649 L1.49266425,15.0017649 C1.24720436,15.0017649 1.04305588,14.8248897 1.00071992,14.5916405 L0.992664253,14.5017649 L0.992664253,1.5 C0.992664253,1.25454011 1.16953941,1.05039163 1.40278862,1.00805567 L1.49266425,1 L13.5062497,1 Z M10.9281704,7.99831782 C12.5477288,7.99831782 13.8606162,9.31122236 13.8606162,10.9307808 C13.8606162,11.5804531 13.6493312,12.1807889 13.2917222,12.6668193 L13.3364079,12.7028981 L14.6071066,13.9735968 C14.7048644,14.0713717 14.8025711,14.2669045 14.8025711,14.364577 C14.8025711,14.6578165 14.6071066,14.8533493 14.3138671,14.8533493 C14.1509231,14.8533493 14.0559139,14.7854619 13.9721976,14.70625 L12.6521711,13.3871178 C12.6342733,13.3692232 12.6196517,13.3513308 12.6077066,13.3334398 C12.1325591,13.6676143 11.5532025,13.8631584 10.9281704,13.8631584 C9.30862904,13.8631584 7.99579277,12.5502538 7.99579277,10.9307808 C7.99579277,9.31122236 9.30861197,7.99831782 10.9281704,7.99831782 Z M10.9271976,8.97673276 C10.2185042,8.96108262 9.55688077,9.33030289 9.19801997,9.94161382 C8.83915917,10.5528906 8.83938104,11.3105994 9.19853197,11.9217226 C9.55769997,12.53288 10.219477,12.9017248 10.9281704,12.8856821 C11.9905704,12.8616864 12.8391762,11.9934026 12.8389375,10.9307637 C12.8386301,9.86807356 11.9896146,9.00023356 10.9271976,8.97673276 Z M6.4988042,7.99831782 C6.77494658,7.99831782 6.9988042,8.22217545 6.9988042,8.49831782 C6.9988042,8.7744602 6.77494658,8.99831782 6.4988042,8.99831782 L3.4988042,8.99831782 C3.22266183,8.99831782 2.9988042,8.7744602 2.9988042,8.49831782 C2.9988042,8.22217545 3.22266183,7.99831782 3.4988042,7.99831782 L6.4988042,7.99831782 Z M11.4988042,5.99725382 C11.7749466,5.99725382 11.9988042,6.22111144 11.9988042,6.49725382 C11.9988042,6.77339619 11.7749466,6.99725382 11.4988042,6.99725382 L3.4988042,6.99725382 C3.22266183,6.99725382 2.9988042,6.77339619 2.9988042,6.49725382 C2.9988042,6.22111144 3.22266183,5.99725382 3.4988042,5.99725382 L11.4988042,5.99725382 Z M11.4988042,3.99618981 C11.7749466,3.99618981 11.9988042,4.22004744 11.9988042,4.49618981 C11.9988042,4.77233219 11.7749466,4.99618981 11.4988042,4.99618981 L3.4988042,4.99618981 C3.22266183,4.99618981 2.9988042,4.77233219 2.9988042,4.49618981 C2.9988042,4.22004744 3.22266183,3.99618981 3.4988042,3.99618981 L11.4988042,3.99618981 Z"/>
</svg>
