<svg xmlns="http://www.w3.org/2000/svg" width="16" height="16" viewBox="0 0 16 16">
  <path fill-rule="evenodd" d="M5,2 L5,3 L3,3 L3,14 L13,14 L13,3 L11,3 L11,2 L13,2 C13.5522847,2 14,2.44771525 14,3 L14,14 C14,14.5522847 13.5522847,15 13,15 L3,15 C2.44771525,15 2,14.5522847 2,14 L2,3 C2,2.44771525 2.44771525,2 3,2 L5,2 Z M6,2 L6,3 L10,3 L10,2 L6,2 Z M6,1 L10,1 C10.5522847,1 11,1.44771525 11,2 L11,3 C11,3.55228475 10.5522847,4 10,4 L6,4 C5.44771525,4 5,3.55228475 5,3 L5,2 C5,1.44771525 5.44771525,1 6,1 Z M5.5,6 L10.5,6 C10.7761424,6 11,6.22385763 11,6.5 C11,6.77614237 10.7761424,7 10.5,7 L5.5,7 C5.22385763,7 5,6.77614237 5,6.5 C5,6.22385763 5.22385763,6 5.5,6 Z M5.5,9 L10.5,9 C10.7761424,9 11,9.22385763 11,9.5 C11,9.77614237 10.7761424,10 10.5,10 L5.5,10 C5.22385763,10 5,9.77614237 5,9.5 C5,9.22385763 5.22385763,9 5.5,9 Z"/>
</svg>
