<svg xmlns="http://www.w3.org/2000/svg" viewBox="0 0 16 16"><path fill-rule="evenodd" d="M14 2a1 1 0 011 1v11a1 1 0 01-1 1H2a1 1 0 01-1-1V3a1 1 0 011-1h12zm0 4H2v8h12V6zm-4.526.87a.5.5 0 01.256.587l-.033.084-2.571 5.143a.5.5 0 01-.928-.363l.033-.084 2.572-5.143a.5.5 0 01.67-.224zM5.7 7.867a.5.5 0 01.058.637l-.058.07-1.493 1.492L5.7 11.56a.5.5 0 01.058.638l-.058.069a.5.5 0 01-.638.058l-.07-.058-1.846-1.846a.5.5 0 01-.057-.638l.057-.07 1.847-1.845a.5.5 0 01.707 0zm5.084-.058l.07.058L12.7 9.713a.5.5 0 01.058.638l-.058.069-1.846 1.846a.5.5 0 01-.765-.638l.057-.07 1.493-1.492-1.493-1.492a.5.5 0 01-.057-.638l.057-.07a.5.5 0 01.638-.057zM14 3H2v2h12V3z"/></svg>