<svg xmlns="http://www.w3.org/2000/svg" width="16" height="16" viewBox="0 0 16 16">
  <path fill-rule="evenodd" d="M13.5,13.5 L12.5,13.5 L12.5,11.25 C12.5,10.934375 12.3515625,10.6390625 12.0984375,10.45 L8.8328125,8 L12.0984375,5.55 C12.35,5.3609375 12.4984375,5.0640625 12.4984375,4.75 L12.4984375,2.5 L13.4984375,2.5 C13.775,2.5 13.9984375,2.2765625 13.9984375,2 C13.9984375,1.7234375 13.775,1.5 13.4984375,1.5 L2.5,1.5 C2.2234375,1.5 2,1.7234375 2,2 C2,2.2765625 2.2234375,2.5 2.5,2.5 L3.5,2.5 L3.5,4.75 C3.5,5.0640625 3.6484375,5.3609375 3.9,5.55 L7.165625,8 L3.9,10.45 C3.6484375,10.6390625 3.5,10.9359375 3.5,11.25 L3.5,13.5 L2.5,13.5 C2.2234375,13.5 2,13.7234375 2,14 C2,14.2765625 2.2234375,14.5 2.5,14.5 L13.5,14.5 C13.7765625,14.5 14,14.2765625 14,14 C14,13.7234375 13.7765625,13.5 13.5,13.5 Z M4.5,4.75 L4.5,2.5 L11.5,2.5 L11.5,4.75 L8,7.375 L4.5,4.75 Z M4.5,11.25 L8,8.625 L11.5,11.25 L11.5,13.5 L4.5,13.5 L4.5,11.25 Z"/>
</svg>
