<svg xmlns="http://www.w3.org/2000/svg" width="16" height="16" viewBox="0 0 16 16">
  <path d="M13.4733704,10.3648547 C15.5078776,11.6627766 14.8407474,13.0184891 12.3807142,14.3800923 C10.0436827,15.6736154 7.24578034,13.7379468 4.4921137,10.9842802 L4.07528525,10.560392 L3.66244556,10.124497 C1.37166481,7.6545707 -0.0582799386,5.19411642 1.10073148,3.10010955 C2.46233472,0.640076379 3.81804722,-0.0270538064 5.11596905,2.00745335 C6.23486718,3.76133882 5.91709563,4.47535638 5.54761133,5.07179422 L5.37196011,5.35283196 C5.09384102,5.81487796 4.69671221,6.20189181 4.80564833,6.66758343 C4.8506468,6.85994761 5.27594174,7.54350872 6.40189305,8.69491823 L6.58554417,8.88060426 C7.84932525,10.1443853 8.63433651,10.6333257 8.81324035,10.6751754 C9.23659637,10.7742083 9.59492943,10.4550056 10.0037241,10.1871954 L10.4812255,9.88921119 L10.6243031,9.80806839 L10.7753541,9.73448038 C11.3209102,9.49453476 12.0590372,9.46257528 13.4733704,10.3648547 Z M11.117617,10.6779198 L11.010644,10.737572 L10.5517207,11.0236759 L10.1638575,11.2867124 L9.9867304,11.394765 C9.53527778,11.6551418 9.08966853,11.7668341 8.58546598,11.6488894 C8.12201604,11.5404776 7.28433466,10.9341211 6.2832165,9.98250349 L5.87455227,9.58380447 L5.49017314,9.19042306 C4.53111652,8.18519741 3.94492834,7.37839625 3.83193439,6.8953578 C3.72709464,6.44717775 3.8036965,6.04529365 4.0048844,5.64444956 L4.12956431,5.41933171 L4.43522505,4.96218959 L4.74582324,4.46416167 C4.98808343,4.03953026 4.97907728,3.72059773 4.48246367,2.88434412 L4.27291536,2.54528276 L4.13537474,2.34075593 C3.48521923,1.43138434 3.02893326,1.68139381 1.97565495,3.58437076 C1.16673213,5.04586624 2.10518064,7.08191419 4.78830464,9.85924769 L5.19922048,10.2771734 C8.19620389,13.2741568 10.3618134,14.3545762 11.896453,13.5051688 L12.2667486,13.2955081 C13.8862387,12.3544222 13.9965269,11.9190212 13.0418794,11.2774676 L12.7560313,11.0955676 C11.8333743,10.5301878 11.4558288,10.4984359 11.117617,10.6779198 Z"/>
</svg>
