<svg xmlns="http://www.w3.org/2000/svg" width="16" height="16" viewBox="0 0 16 16">
  <path d="M13.0077882,7 L13.0395965,7 L13.0395965,3.5 C13.0395965,3.3671875 12.9864715,3.240625 12.8927215,3.146875 L10.8927215,1.146875 C10.7989715,1.053125 10.672409,1 10.5395965,1 L5.03959651,1 C4.48803401,1 4.03959651,1.4484375 4.03959651,2 L4.03959651,7 L4.02464892,7 C2.91996142,7.0015625 2.02621142,7.8953125 2.02464892,9 L2.02464892,12 C2.02464892,12.5515625 2.47308642,13 3.02464892,13 L4.03959651,13 L4.03959651,14 C4.03959651,14.5515625 4.48803401,15 5.03959651,15 L12.0395965,15 C12.591159,15 13.0395965,14.5515625 13.0395965,14 L13.0395965,13 L14.0077882,13 C14.5593507,13 15.0077882,12.5515625 15.0077882,12 L15.0077882,9 C15.0062257,7.8953125 14.1124757,7.0015625 13.0077882,7 Z M11.0395965,2.7078125 L11.331784,3 L11.0395965,3 L11.0395965,2.7078125 Z M5.03959651,2 L10.0395965,2 L10.0395965,3.5 C10.0395965,3.7765625 10.263034,4 10.5395965,4 L12.0395965,4 L12.0395965,7 L5.03959651,7 L5.03959651,2 Z M12.0395965,14 L5.03959651,14 L5.03959651,10.9527145 L12.0395965,10.9527145 L12.0395965,14 Z M14.0395965,12 L13.0395965,12 L13.0395965,10.9527145 C13.0395965,10.401152 12.591159,9.95271448 12.0395965,9.95271448 L5.03959651,9.95271448 C4.48803401,9.95271448 4.03959651,10.401152 4.03959651,10.9527145 L4.03959651,12 L3.01827704,12 L3.01827704,9 C3.01827704,8.4484375 3.46671454,8 4.01827704,8 L13.0395965,8 C13.591159,8 14.0395965,8.4484375 14.0395965,9 L14.0395965,12 Z"/>
</svg>
