<svg xmlns="http://www.w3.org/2000/svg" width="16" height="16" viewBox="0 0 16 16">
  <path d="M13.1449047,1 C13.6695433,1 14.1049837,1.40544755 14.1423627,1.92875295 L14.9995057,13.928753 C15.0388543,14.4796342 14.6241759,14.95811 14.0732947,14.9974587 L14.0020477,15 L3,15 C2.44771525,15 2,14.5522847 2,14 L2.0025413,13.928753 L2.85968416,1.92875295 C2.89706311,1.40544755 3.33250419,1 3.85714286,1 L13.1449047,1 Z M13.1449047,2 L3.85714286,2 L3,14 L14.0020477,14 L13.1449047,2 Z M10.9260237,4.01947314 C11.202166,4.01947314 11.4260237,4.24333077 11.4260237,4.51947314 C11.4260237,6.68882465 10.369878,8.01947314 8.42602365,8.01947314 C6.48216935,8.01947314 5.42602365,6.68882465 5.42602365,4.51947314 C5.42602365,4.24333077 5.64988128,4.01947314 5.92602365,4.01947314 C6.20216603,4.01947314 6.42602365,4.24333077 6.42602365,4.51947314 C6.42602365,6.1806778 7.09178181,7.01947314 8.42602365,7.01947314 C9.76026549,7.01947314 10.4260237,6.1806778 10.4260237,4.51947314 C10.4260237,4.24333077 10.6498813,4.01947314 10.9260237,4.01947314 Z"/>
</svg>
