<svg xmlns="http://www.w3.org/2000/svg" viewBox="0 0 16 16"><path fill-rule="evenodd" d="M7.101 1.078l-1.78 3.777-3.97.605a.99.99 0 00-.576.306l-.08.097c-.29.4-.256.969.098 1.33l2.886 2.948-.682 4.169c-.035.217-.001.44.097.635l.06.104a.984.984 0 001.3.329L8 13.425l3.546 1.953a.978.978 0 00.645.107l.114-.028c.48-.146.78-.638.698-1.147l-.683-4.169 2.887-2.947a1.03 1.03 0 00.283-.58l.01-.117a1.015 1.015 0 00-.85-1.037l-3.972-.605-1.78-3.777a.987.987 0 00-1.797 0zM6 5.764L8 1.517l2.001 4.247 4.498.685v.028l-.007.017-3.24 3.31.764 4.667-.001.024L8 12.283l-4.014 2.211-.002-.023.764-4.667-3.24-3.31L1.5 6.48v-.018l.005-.014 4.493-.684z"/></svg>