<svg xmlns="http://www.w3.org/2000/svg" width="16" height="16" viewBox="0 0 16 16">
  <path d="M12.0370847,6.04254837 C13.1416542,6.04254837 14.0370847,6.93797887 14.0370847,8.04254837 L14.0370847,13.0425484 C14.0370847,14.1471179 13.1416542,15.0425484 12.0370847,15.0425484 L5.03708473,15.0425484 C3.93251523,15.0425484 3.03708473,14.1471179 3.03708473,13.0425484 L3.03708473,8.04254837 C3.03708473,6.93797887 3.93251523,6.04254837 5.03708473,6.04254837 L12.0370847,6.04254837 Z M12.0370847,7.04254837 L5.03708473,7.04254837 C4.48479998,7.04254837 4.03708473,7.49026362 4.03708473,8.04254837 L4.03708473,13.0425484 C4.03708473,13.5948331 4.48479998,14.0425484 5.03708473,14.0425484 L12.0370847,14.0425484 C12.5893695,14.0425484 13.0370847,13.5948331 13.0370847,13.0425484 L13.0370847,8.04254837 C13.0370847,7.49026362 12.5893695,7.04254837 12.0370847,7.04254837 Z M8.4127685,1.44818148 L9.96840342,3.0038164 C10.1419698,3.17738275 10.1612549,3.44680715 10.0262589,3.6416753 L9.96840342,3.71092318 L8.4127685,5.2665581 C8.21750636,5.46182025 7.90092387,5.46182025 7.70566172,5.2665581 C7.51039958,5.07129596 7.51039958,4.75471347 7.70566172,4.55945132 L8.35458346,3.90975995 C6.06426309,3.95243504 4.71306932,4.25986587 3.48121562,5.13218013 C2.48452502,5.83796802 1.80277219,6.95602775 1.43942028,8.51100093 C1.37658649,8.77989965 1.10766414,8.94694829 0.838765416,8.88411449 C0.569866689,8.8212807 0.402818056,8.55235835 0.465651851,8.28345962 C0.881484775,6.5038927 1.69288245,5.17321826 2.90330803,4.31607792 C4.35932485,3.28502672 5.90614643,2.9449383 8.45720183,2.90791763 L7.70566172,2.15528826 C7.51039958,1.96002612 7.51039958,1.64344363 7.70566172,1.44818148 C7.90092387,1.25291934 8.21750636,1.25291934 8.4127685,1.44818148 Z"/>
</svg>
