<svg xmlns="http://www.w3.org/2000/svg" width="16" height="16" viewBox="0 0 16 16">
  <path d="M13.5914581,6.01940361 C14.6960276,6.01940361 15.5914581,6.91483411 15.5914581,8.01940361 L15.5914581,13.0194036 C15.5914581,14.1239731 14.6960276,15.0194036 13.5914581,15.0194036 L6.59145811,15.0194036 C5.48688861,15.0194036 4.59145811,14.1239731 4.59145811,13.0194036 L4.59145811,8.01940361 C4.59145811,6.91483411 5.48688861,6.01940361 6.59145811,6.01940361 L13.5914581,6.01940361 Z M13.5914581,7.01940361 L6.59145811,7.01940361 C6.03917336,7.01940361 5.59145811,7.46711886 5.59145811,8.01940361 L5.59145811,13.0194036 C5.59145811,13.5716884 6.03917336,14.0194036 6.59145811,14.0194036 L13.5914581,14.0194036 C14.1437429,14.0194036 14.5914581,13.5716884 14.5914581,13.0194036 L14.5914581,8.01940361 C14.5914581,7.46711886 14.1437429,7.01940361 13.5914581,7.01940361 Z M9.96714188,1.42503672 L11.5227768,2.98067164 C11.6963432,3.15423799 11.7156283,3.42366239 11.5806323,3.61853054 L11.5227768,3.68777842 L9.96714188,5.24341334 C9.77187974,5.43867549 9.45529725,5.43867549 9.2600351,5.24341334 C9.06477296,5.0481512 9.06477296,4.73156871 9.2600351,4.53630656 L9.90895684,3.88661519 C7.61863647,3.92929028 6.2674427,4.23672111 5.035589,5.10903537 C4.0388984,5.81482326 3.35714557,6.93288299 2.99379366,8.48785617 C2.93095987,8.75675489 2.66203752,8.92380353 2.3931388,8.86096973 C2.12424007,8.79813594 1.95719144,8.52921359 2.02002523,8.26031486 C2.43585816,6.48074794 3.24725583,5.1500735 4.45768141,4.29293316 C5.91369823,3.26188196 7.46051981,2.92179354 10.0115752,2.88477287 L9.2600351,2.1321435 C9.06477296,1.93688136 9.06477296,1.62029887 9.2600351,1.42503672 C9.45529725,1.22977458 9.77187974,1.22977458 9.96714188,1.42503672 Z" transform="matrix(-1 0 0 1 17.598 0)"/>
</svg>
