<svg xmlns="http://www.w3.org/2000/svg" viewBox="0 0 1024 1024"><path d="M983.8 312.7C873.7 52.1 573.3-69.9 312.8 40.2 123.6 120.4.6 305.8.4 511.2.1 794.1 229.1 1023.7 512 1024c68.5.2 136.3-13.5 199.3-40.3 260.6-110.1 382.6-410.5 272.5-671zM726.6 681.4c12.5 12.6 12.5 32.8 0 45.3-6 6-14.1 9.4-22.6 9.4-8.5 0-16.6-3.4-22.6-9.4L512 557.3 342.6 726.7c-6 6-14.1 9.4-22.6 9.4-8.5 0-16.5-3.4-22.5-9.4-12.5-12.5-12.5-32.8 0-45.3L466.8 512 297.4 342.7c-12.5-12.5-12.5-32.8 0-45.3s32.8-12.5 45.3 0L512 466.7l169.5-169.4c12.5-12.5 32.8-12.5 45.3 0s12.5 32.8 0 45.3L557.3 512l169.3 169.4z"/></svg>
