<svg xmlns="http://www.w3.org/2000/svg" width="16" height="16" viewBox="0 0 16 16">
  <path d="M11,2 C11.5522847,2 12,2.44771525 12,3 L12,4 L14.0573526,4 C14.5585309,4 14.9823027,4.37099521 15.048572,4.86777287 L15.8489627,10.8677729 C15.9219897,11.4152083 15.5374057,11.9181924 14.9899704,11.9912194 C14.9461373,11.9970667 14.9019646,12 14.8577432,12 L14,12 C14,13.1045695 13.1045695,14 12,14 C10.9456382,14 10.0818349,13.1841222 10.0054857,12.1492623 L10,12 L6,12 C6,13.1045695 5.1045695,14 4,14 C2.9456382,14 2.08183488,13.1841222 2.00548574,12.1492623 L2,12 C1.44771525,12 1,11.5522847 1,11 L1,3 C1,2.44771525 1.44771525,2 2,2 L11,2 Z M4,11 C3.44771525,11 3,11.4477153 3,12 C3,12.5522847 3.44771525,13 4,13 C4.55228475,13 5,12.5522847 5,12 C5,11.4477153 4.55228475,11 4,11 Z M12,11 C11.4477153,11 11,11.4477153 11,12 C11,12.5522847 11.4477153,13 12,13 C12.5522847,13 13,12.5522847 13,12 C13,11.4477153 12.5522847,11 12,11 Z M11,3 L2,3 L2,11 L2.26760632,10.9999275 L2.25952044,11.0140364 C2.60328778,10.4085029 3.25393841,10 4,10 C4.68905526,10 5.29672315,10.3484608 5.65639728,10.8787759 L5.73239368,10.9999275 L10.2676063,10.9999275 L10.2595204,11.0140364 C10.4084927,10.7516273 10.6150957,10.5262194 10.8621197,10.3550224 L11,10.2676063 L11,3 Z M14.457,8 L12,8 L12,10 C12.6856081,10 13.2906411,10.3449829 13.6509806,10.8708305 L13.7318119,10.9989225 L14.8577432,11 L14.457,8 Z M14.0573526,5 L12,5 L12,7 L14.324,7 L14.0573526,5 Z"/>
</svg>
