<svg xmlns="http://www.w3.org/2000/svg" viewBox="0 0 16 16"><path fill-rule="evenodd" d="M8.517 1.524l.14.06 5.5 2.685c.473.23.787.69.836 1.206l.007.142V13.5a1.5 1.5 0 01-1.356 1.493L13.5 15h-11a1.5 1.5 0 01-1.493-1.356L1 13.5V5.617a1.5 1.5 0 01.717-1.28l.125-.068 5.5-2.685a1.5 1.5 0 011.175-.06zm-.65.927l-.086.032-5.5 2.684a.5.5 0 00-.272.356L2 5.617V13.5a.5.5 0 00.41.492L2.5 14h11a.5.5 0 00.492-.41L14 13.5V5.617a.5.5 0 00-.2-.4l-.08-.05-5.5-2.684a.5.5 0 00-.354-.032zM8 10.627a.876.876 0 11-.002 1.752A.876.876 0 018 10.627zM8 5.5c.476 0 .863.38.875.853l-.004.11-.436 2.9a.438.438 0 01-.87 0L7.13 6.465l-.004-.11A.877.877 0 018 5.5z"/></svg>