<svg xmlns="http://www.w3.org/2000/svg" width="16" height="16" viewBox="0 0 16 16">
  <path fill-rule="evenodd" d="M8,1 C11.8659932,1 15,4.13400675 15,8 C15,11.8659932 11.8659932,15 8,15 C4.13400675,15 1,11.8659932 1,8 C1,4.13400675 4.13400675,1 8,1 Z M11.1464466,5.92870864 L7.097234,9.97792125 L4.85355339,7.73424065 C4.65829124,7.5389785 4.34170876,7.5389785 4.14644661,7.73424065 C3.95118446,7.92950279 3.95118446,8.24608528 4.14644661,8.44134743 L6.7436806,11.0385814 C6.93894275,11.2338436 7.25552524,11.2338436 7.45078739,11.0385814 L11.8535534,6.63581542 C12.0488155,6.44055327 12.0488155,6.12397078 11.8535534,5.92870864 C11.6582912,5.73344649 11.3417088,5.73344649 11.1464466,5.92870864 Z"/>
</svg>
