<svg xmlns="http://www.w3.org/2000/svg" width="16" height="16" viewBox="0 0 16 16">
  <path d="M8,1 C11.8659932,1 15,4.13400675 15,8 C15,11.8659932 11.8659932,15 8,15 C4.13400675,15 1,11.8659932 1,8 C1,4.13400675 4.13400675,1 8,1 Z M8,3.5 C7.75454011,3.5 7.55039163,3.67687516 7.50805567,3.91012437 L7.5,4 L7.5,8 C7.5,8.24545989 7.67687516,8.44960837 7.91012437,8.49194433 L8,8.5 L11,8.5 C11.2761424,8.5 11.5,8.27614237 11.5,8 C11.5,7.75454011 11.3231248,7.55039163 11.0898756,7.50805567 L11,7.5 L8.5,7.5 L8.5,4 C8.5,3.72385763 8.27614237,3.5 8,3.5 Z"/>
</svg>
