<svg xmlns="http://www.w3.org/2000/svg" width="16" height="16" viewBox="0 0 16 16">
  <path d="M8,1 C11.8659932,1 15,4.13400675 15,8 C15,11.8659932 11.8659932,15 8,15 C4.13400675,15 1,11.8659932 1,8 C1,4.13400675 4.13400675,1 8,1 Z M8,2 C4.6862915,2 2,4.6862915 2,8 C2,11.3137085 4.6862915,14 8,14 C11.3137085,14 14,11.3137085 14,8 C14,4.6862915 11.3137085,2 8,2 Z M8,3.5 C8.27614237,3.5 8.5,3.72385763 8.5,4 L8.5,7.5 L11,7.5 C11.2761424,7.5 11.5,7.72385763 11.5,8 C11.5,8.27614237 11.2761424,8.5 11,8.5 L8,8.5 C7.72385763,8.5 7.5,8.27614237 7.5,8 L7.5,4 C7.5,3.72385763 7.72385763,3.5 8,3.5 Z"/>
</svg>
