<svg xmlns="http://www.w3.org/2000/svg" width="16" height="16" viewBox="0 0 16 16">
  <path d="M8.78292029,7.58158176 L8.85236244,7.63920408 L10.8973147,9.6704486 C11.0932324,9.865053 11.094297,10.1816337 10.8996926,10.3775514 C10.726711,10.5517004 10.4573529,10.5718915 10.2620319,10.4375515 L10.1925899,10.3799293 L8.99937869,9.1949444 L9,13.5309892 C9,13.8071316 8.77614237,14.0309892 8.5,14.0309892 C8.22385763,14.0309892 8,13.8071316 8,13.5309892 L7.99937869,9.2059444 L6.8371197,10.3775507 C6.66413832,10.5517001 6.39478034,10.5718917 6.19945908,10.4375521 L6.13001692,10.3799299 C5.95586755,10.2069486 5.93567598,9.93759057 6.0700156,9.74226931 L6.12763773,9.67282715 L8.14525902,7.64158263 C8.29661791,7.48920174 8.5217653,7.45469511 8.70653716,7.53844677 L8.78292029,7.58158176 Z M8.5,1.97316034 C10.8791074,1.97316034 12.8269992,3.81941407 12.9890893,6.15733543 C14.440303,6.58304028 15.5,7.92513162 15.5,9.51472846 C15.5,11.3690181 14.0580079,12.8865125 12.2342195,13.0070156 L12.2342195,13.0141603 L12,13.0141603 C11.7238576,13.0141603 11.5,12.7903027 11.5,12.5141603 C11.5,12.2374186 11.7232521,12.0125004 11.9999862,12.0104427 L12.1682902,12.0091913 C13.4758869,11.9227945 14.5,10.8329834 14.5,9.51472846 C14.5,8.39820367 13.7613378,7.4260075 12.7076063,7.11690164 L12.0396311,6.92095514 L11.991484,6.22650022 C11.8648825,4.40045082 10.3413687,2.97316034 8.5,2.97316034 C6.65873733,2.97316034 5.13517151,4.40032956 5.00879804,6.22543527 L4.96073706,6.91953955 L4.29321467,7.11576511 C3.2387504,7.42573648 2.5,8.3981757 2.5,9.51472846 C2.5,10.8954403 3.61928813,12.0147285 5,12.0147285 C5.24518115,12.0144499 5.44929854,12.1908925 5.49185115,12.4238288 L5.5,12.5141603 C5.5,12.7597019 5.32319753,12.9639877 5.08990009,13.0065737 L5,13.0147285 C3.06700338,13.0147285 1.5,11.4477251 1.5,9.51472846 C1.5,7.92513162 2.55969705,6.58304028 4.01118666,6.15635893 C4.17300077,3.81941407 6.12089255,1.97316034 8.5,1.97316034 Z"/>
</svg>
