<svg xmlns="http://www.w3.org/2000/svg" width="16" height="16" viewBox="0 0 16 16">
  <path d="M14,2 C14.5522847,2 15,2.44771525 15,3 L15,13 C15,13.5522847 14.5522847,14 14,14 L2,14 C1.44771525,14 1,13.5522847 1,13 L1,3 C1,2.44771525 1.44771525,2 2,2 L14,2 Z M14,3 L2,3 L2,13 L14,13 L14,3 Z M6.7242519,5.55343151 L10.7242519,7.55343151 C11.0927762,7.73769364 11.0927762,8.26359657 10.7242519,8.4478587 L6.7242519,10.4478587 C6.39180136,10.614084 6.00064511,10.3723361 6.00064511,10.0006451 L6.00064511,6.00064511 C6.00064511,5.6289541 6.39180136,5.38720624 6.7242519,5.55343151 Z M7.00064511,6.8096621 L7.00064511,9.19162811 L9.38261112,8.00064511 L7.00064511,6.8096621 Z"/>
</svg>
