<svg xmlns="http://www.w3.org/2000/svg" viewBox="0 0 16 16"><path fill-rule="evenodd" d="M7.342 1.584a1.5 1.5 0 011.175-.06l.14.06 5.5 2.685c.473.23.787.69.836 1.206l.007.142V13.5a1.5 1.5 0 01-1.356 1.493L13.5 15h-11a1.5 1.5 0 01-1.493-1.356L1 13.5V5.617a1.5 1.5 0 01.717-1.28l.125-.068 5.5-2.685zm.877.9a.5.5 0 00-.353-.033l-.085.032-5.5 2.684a.5.5 0 00-.272.356L2 5.617V13.5a.5.5 0 00.41.492L2.5 14h11a.5.5 0 00.492-.41L14 13.5V5.617a.5.5 0 00-.2-.4l-.08-.05-5.5-2.684zm2.068 4.065a.5.5 0 01.5.5v2a.5.5 0 01-.5.5h-2a.5.5 0 110-1h.889l-.085-.093a1.814 1.814 0 10-.112 2.677.5.5 0 01.643.766 2.813 2.813 0 11.165-4.16v-.69a.5.5 0 01.5-.5z"/></svg>