<svg xmlns="http://www.w3.org/2000/svg" viewBox="0 0 16 16"><path fill-rule="evenodd" d="M8 0a7 7 0 017 7v4.5a3.5 3.5 0 01-3.5 3.5H8a1 1 0 110-2h1a1 1 0 011 1h1.5a2.5 2.5 0 002.45-2H14v-.086a1.498 1.498 0 01-.5.086h-1a1.5 1.5 0 01-1.5-1.5v-3A1.5 1.5 0 0112.5 6h1c.148 0 .29.021.425.061a5.999 5.999 0 00-5.7-5.057L8 1a6.002 6.002 0 00-5.927 5.06c.137-.039.28-.06.427-.06h1A1.5 1.5 0 015 7.5v3A1.5 1.5 0 013.5 12h-1A1.5 1.5 0 011 10.5V7a7 7 0 017-7zm1.05 9.423a.538.538 0 01.422.83 2.064 2.064 0 01-2.635.758.54.54 0 01.459-.976.997.997 0 001.275-.368.538.538 0 01.479-.244zM3.5 7h-1a.5.5 0 00-.492.41L2 7.5v3a.5.5 0 00.41.492L2.5 11h1a.5.5 0 00.492-.41L4 10.5v-3a.5.5 0 00-.41-.492L3.5 7zm10 0h-1a.5.5 0 00-.492.41L12 7.5v3a.5.5 0 00.41.492l.09.008h1a.5.5 0 00.492-.41L14 10.5v-3a.5.5 0 00-.41-.492L13.5 7z"/></svg>