<svg xmlns="http://www.w3.org/2000/svg" width="16" height="16" viewBox="0 0 16 16">
  <path d="M11.5,4.00696144 C11.7761424,4.00696144 12,4.23081906 12,4.50696144 L12,6.995 L13,6.9954305 C14.1045695,6.9954305 15,7.890861 15,8.9954305 L15,13.9954305 C15,14.5477153 14.5522847,14.9954305 14,14.9954305 L3,14.9954305 C2.44771525,14.9954305 2,14.5477153 2,13.9954305 L2,8.9954305 C2,7.890861 2.8954305,6.9954305 4,6.9954305 L5,6.995 L5,4.50696144 C5,4.23081906 5.22385763,4.00696144 5.5,4.00696144 C5.77614237,4.00696144 6,4.23081906 6,4.50696144 L6,6.995 L8,6.995 L8,4.50696144 C8,4.23081906 8.22385763,4.00696144 8.5,4.00696144 C8.77614237,4.00696144 9,4.23081906 9,4.50696144 L9,6.995 L11,6.995 L11,4.50696144 C11,4.23081906 11.2238576,4.00696144 11.5,4.00696144 Z M14,10.9954305 L3,10.995 L3,13.9954305 L14,13.9954305 L14,10.9954305 Z M13,7.9954305 L4,7.9954305 C3.44771525,7.9954305 3,8.44314575 3,8.9954305 L3,9.995 L14,9.9954305 L14,8.9954305 C14,8.44314575 13.5522847,7.9954305 13,7.9954305 Z M5.5,1.47 C5.77614237,1.47 6,1.69385763 6,1.97 L6,2.47 C6,2.74614237 5.77614237,2.97 5.5,2.97 C5.22385763,2.97 5,2.74614237 5,2.47 L5,1.97 C5,1.69385763 5.22385763,1.47 5.5,1.47 Z M8.5,1.47 C8.77614237,1.47 9,1.69385763 9,1.97 L9,2.47 C9,2.74614237 8.77614237,2.97 8.5,2.97 C8.22385763,2.97 8,2.74614237 8,2.47 L8,1.97 C8,1.69385763 8.22385763,1.47 8.5,1.47 Z M11.4836594,1.47 C11.7598018,1.47 11.9836594,1.69385763 11.9836594,1.97 L11.9836594,2.47 C11.9836594,2.74614237 11.7598018,2.97 11.4836594,2.97 C11.207517,2.97 10.9836594,2.74614237 10.9836594,2.47 L10.9836594,1.97 C10.9836594,1.69385763 11.207517,1.47 11.4836594,1.47 Z"/>
</svg>
