<svg xmlns="http://www.w3.org/2000/svg" viewBox="0 0 16 16"><path fill-rule="evenodd" d="M12.85 2c.478 0 .866.4.866.894l-.003.068-.124 1.654h.127c.617 0 1.14.437 1.264 1.052l.018.117.006.12v7.758a.898.898 0 01-1.389.752l-.084-.062-1.47-1.225-6.218.002a1.29 1.29 0 01-1.24-.945l-.028-.116-.016-.12-.056-.654h-.007L2.71 12.832a.427.427 0 01-.203.097l-.075.007a.437.437 0 01-.426-.367L2 12.488V2.894A.88.88 0 012.867 2h9.982zm.866 3.632h-.203l-.36 4.84a.878.878 0 01-.864.825l-6.767-.002.045.54.008.061a.273.273 0 00.213.213l.055.005h6.587l1.558 1.298.002-7.478-.003-.061a.273.273 0 00-.213-.235l-.058-.006zM12.69 3.015H3.015v8.214l1.104-.949h8.03l.542-7.265zM5.307 6.088a.625.625 0 01.814-.06l.146.128c.11.087.255.162.431.223.299.103.62.151.925.151.305 0 .627-.048.926-.151.176-.06.32-.136.431-.223l.146-.128a.625.625 0 01.814.944 2.532 2.532 0 01-.984.588 4.07 4.07 0 01-1.333.22 4.07 4.07 0 01-1.332-.22 2.532 2.532 0 01-.984-.588.625.625 0 010-.884z"/></svg>