<svg xmlns="http://www.w3.org/2000/svg" width="16" height="16" viewBox="0 0 16 16">
  <path d="M14,2 C14.5522847,2 15,2.44771525 15,3 L15,11 C15,11.5522847 14.5522847,12 14,12 L6,12 L3.85355339,14.1464466 C3.65829124,14.3417088 3.34170876,14.3417088 3.14644661,14.1464466 C3.05267842,14.0526784 3,13.9255015 3,13.7928932 L3,12 L2,12 C1.44771525,12 1,11.5522847 1,11 L1,3 C1,2.44771525 1.44771525,2 2,2 L14,2 Z M14,3 L2,3 L2,11 L4,11 L4,12.5857864 L5.58578644,11 L14,11 L14,3 Z M8.5,7 C8.77614237,7 9,7.22385763 9,7.5 C9,7.77614237 8.77614237,8 8.5,8 L4.5,8 C4.22385763,8 4,7.77614237 4,7.5 C4,7.22385763 4.22385763,7 4.5,7 L8.5,7 Z M11.5,5 C11.7761424,5 12,5.22385763 12,5.5 C12,5.77614237 11.7761424,6 11.5,6 L4.5,6 C4.22385763,6 4,5.77614237 4,5.5 C4,5.22385763 4.22385763,5 4.5,5 L11.5,5 Z"/>
</svg>
