<svg xmlns="http://www.w3.org/2000/svg" width="16" height="16" viewBox="0 0 16 16">
  <path fill-rule="evenodd" d="M2.5,2 C2.77614237,2 3,2.22385763 3,2.5 L3,14 L14.5,14 C14.7761424,14 15,14.2238576 15,14.5 C15,14.7761424 14.7761424,15 14.5,15 L2.5,15 C2.22385763,15 2,14.7761424 2,14.5 L2,2.5 C2,2.22385763 2.22385763,2 2.5,2 Z M14.3176989,4.61390754 C14.5072394,4.76987223 14.5524936,5.03616808 14.4369788,5.24317977 L14.3860925,5.31769894 L10.7860925,9.69269894 C10.620917,9.893433 10.3346145,9.93061765 10.1257621,9.79322469 L10.0514608,9.73349746 L8.64093875,8.36215657 L5.38609246,12.3176989 C5.21063218,12.5309319 4.89553404,12.5615527 4.68230106,12.3860925 C4.49276064,12.2301278 4.44750636,11.9638319 4.56302122,11.7568202 L4.61390754,11.6823011 L8.21390754,7.30730106 C8.379083,7.106567 8.66538548,7.06938235 8.87423787,7.20677531 L8.9485392,7.26650254 L10.3590613,8.63784343 L13.6139075,4.68230106 C13.7893678,4.46906809 14.104466,4.43844726 14.3176989,4.61390754 Z"/>
</svg>
