<svg xmlns="http://www.w3.org/2000/svg" width="16" height="16" viewBox="0 0 16 16">
  <path fill-rule="evenodd" d="M14.5069172,9.00824711 C14.7523771,9.00824711 14.9565256,9.18512227 14.9988615,9.41837148 L15.0069172,9.50824711 L15.0069172,13.508579 C15.0069172,13.7540389 14.8300421,13.9581874 14.5967928,14.0005234 L14.5069172,14.008579 L1.5,14.008579 C1.25454011,14.008579 1.05039163,13.8317039 1.00805567,13.5984547 L1,13.508579 L1,9.50824711 C1,9.23210474 1.22385763,9.00824711 1.5,9.00824711 C1.74545989,9.00824711 1.94960837,9.18512227 1.99194433,9.41837148 L2,9.50824711 L2,13.008579 L14.0069172,13.008579 L14.0069172,9.50824711 C14.0069172,9.23210474 14.2307748,9.00824711 14.5069172,9.00824711 Z M8,2 C8.2576,2 8.46666667,2.2086 8.46666667,2.46666667 L8.46666667,9.6006 L10.4654,7.2682 C10.6497333,7.0848 10.9479333,7.0848 11.1313333,7.2682 C11.3156667,7.45253333 11.3156667,7.75026667 11.1313333,7.9346 L8.33413333,11.198 L8.31686667,11.2054667 L8.31686667,11.2054667 C8.25701667,11.2611167 8.18299167,11.3010167 8.10030417,11.3192604 L8.01213333,11.3305333 C7.88706667,11.3342667 7.76106667,11.2936667 7.6654,11.198 L4.8682,7.9346 C4.68433333,7.75026667 4.68433333,7.45253333 4.8682,7.2682 C5.05206667,7.0848 5.35026667,7.0848 5.53413333,7.2682 L7.53333333,9.6006 L7.53333333,2.46666667 C7.53333333,2.2086 7.74193333,2 8,2 Z"/>
</svg>
