<svg xmlns="http://www.w3.org/2000/svg" width="16" height="16" viewBox="0 0 16 16">
  <path d="M8,1 C11.8659932,1 15,4.13400675 15,8 C15,11.8659932 11.8659932,15 8,15 C4.13400675,15 1,11.8659932 1,8 C1,4.13400675 4.13400675,1 8,1 Z M8,2 C4.6862915,2 2,4.6862915 2,8 C2,11.3137085 4.6862915,14 8,14 C11.3137085,14 14,11.3137085 14,8 C14,4.6862915 11.3137085,2 8,2 Z M5.14644661,5.14644661 C5.32001296,4.97288026 5.58943736,4.95359511 5.7843055,5.08859116 L5.85355339,5.14644661 L7.97558084,7.26705985 L10.0961941,5.14644661 L10.165442,5.08859116 C10.3603101,4.95359511 10.6297345,4.97288026 10.8033009,5.14644661 C10.9768672,5.32001296 10.9961524,5.58943736 10.8611563,5.7843055 L10.8033009,5.85355339 L8.68198052,7.97487373 L10.8033009,10.0961941 L10.8611563,10.165442 C10.9961524,10.3603101 10.9768672,10.6297345 10.8033009,10.8033009 C10.6297345,10.9768672 10.3603101,10.9961524 10.165442,10.8611563 L10.0961941,10.8033009 L7.97487373,8.68198052 L5.85355339,10.8033009 L5.7843055,10.8611563 C5.58943736,10.9961524 5.32001296,10.9768672 5.14644661,10.8033009 C4.97288026,10.6297345 4.95359511,10.3603101 5.08859116,10.165442 L5.14644661,10.0961941 L7.26776695,7.97487373 L5.14644661,5.85355339 L5.08859116,5.7843055 C4.95359511,5.58943736 4.97288026,5.32001296 5.14644661,5.14644661 Z"/>
</svg>
