<svg xmlns="http://www.w3.org/2000/svg" width="16" height="16" viewBox="0 0 16 16">
  <path d="M8,1 C11.8659932,1 15,4.13400675 15,8 C15,11.8659932 11.8659932,15 8,15 C4.13400675,15 1,11.8659932 1,8 C1,4.13400675 4.13400675,1 8,1 Z M8,1.875 C4.61725591,1.875 1.875,4.61725591 1.875,8 C1.875,11.3827441 4.61725591,14.125 8,14.125 C11.3827441,14.125 14.125,11.3827441 14.125,8 C14.125,4.61725591 11.3827441,1.875 8,1.875 Z M9.30426923,4.50198056 L9.4765625,4.5 C10.1328125,4.5 10.4609375,4.5525 10.625,4.57875 L10.625,5.8125 L9.4765625,5.8125 C8.7546875,5.8125 8.65625,6.705 8.65625,7.125 L8.65625,7.65 L10.625,7.65 L10.296875,8.7 L8.65625,8.7 L8.65625,12.375 L7.34375,12.375 L7.34375,8.7 L5.375,8.7 L5.375,7.65 L7.34375,7.65 L7.34375,6.075 C7.34375,4.8948913 8.0642604,4.53136106 9.30426923,4.50198056 L9.30426923,4.50198056 Z"/>
</svg>
