<svg xmlns="http://www.w3.org/2000/svg" width="16" height="16" viewBox="0 0 16 16">
  <path d="M7.01574196,1.84686778 C7.10764179,1.84686778 7.18504138,1.90905045 7.20828847,1.99369986 L7.2154212,2.04686778 L7.2154212,13.9531322 C7.2154212,14.0451797 7.15333826,14.1227036 7.06882461,14.145988 L7.01574196,14.1531322 L1.41505633,14.1531322 C1.38563076,14.1531322 1.35656887,14.1466183 1.32994986,14.1340565 C1.2468153,14.0948244 1.20325871,14.0055307 1.21824995,13.9190309 L1.2344222,13.867889 L6.83510782,1.9616246 C6.8680606,1.89157167 6.93842721,1.84686778 7.01574196,1.84686778 Z M9.41491796,1.84686778 C9.49223271,1.84686778 9.56259932,1.89157167 9.59555209,1.9616246 L15.1962377,13.867889 C15.2432407,13.9678108 15.2004715,14.086978 15.1007101,14.1340565 C15.0740911,14.1466183 15.0450292,14.1531322 15.0156036,14.1531322 L9.41491796,14.1531322 C9.30463816,14.1531322 9.21523872,14.0635892 9.21523872,13.9531322 L9.21523872,2.04686778 C9.21523872,1.93641083 9.30463816,1.84686778 9.41491796,1.84686778 Z M6.21702498,5.62181002 L2.6743044,13.1531322 L6.21702498,13.1531322 L6.21702498,5.62181002 Z" transform="rotate(90 8.215 8)"/>
</svg>
