<svg xmlns="http://www.w3.org/2000/svg" width="16" height="16" viewBox="0 0 16 16">
  <path d="M2.14644661,4.62653309 L4.17653309,2.59644661 C4.35009944,2.42288026 4.61952384,2.40359511 4.81439198,2.53859116 L4.88363987,2.59644661 L6.91372634,4.62653309 C7.10898849,4.82179523 7.10898849,5.13837772 6.91372634,5.33363987 C6.74015999,5.50720622 6.47073559,5.52649137 6.27586745,5.39149532 L6.20661956,5.33363987 L5,4.127 L5.00094991,6.99550127 C6.69663386,7.23852475 8,8.69701405 8,10.4599208 C8,12.3929175 6.43299662,13.9599208 4.5,13.9599208 C2.56700338,13.9599208 1,12.3929175 1,10.4599208 C1,8.69666764 2.30387842,7.23795157 4.00004975,6.99535814 L4,4.187 L2.85355339,5.33363987 C2.67998704,5.50720622 2.41056264,5.52649137 2.2156945,5.39149532 L2.14644661,5.33363987 C1.97288026,5.16007351 1.95359511,4.89064911 2.08859116,4.69578097 L2.14644661,4.62653309 L4.17653309,2.59644661 L2.14644661,4.62653309 Z M11.5,2.45 C13.4329966,2.45 15,4.01700338 15,5.95 C15,7.71463885 13.6940715,9.17426175 11.9959507,9.41513236 L11.9992289,9.43693134 L12,10.959 L13.5,10.9599208 C13.7761424,10.9599208 14,11.1837785 14,11.4599208 C14,11.7360632 13.7761424,11.9599208 13.5,11.9599208 L12,11.959 L12,13.4599208 C12,13.7360632 11.7761424,13.9599208 11.5,13.9599208 C11.2238576,13.9599208 11,13.7360632 11,13.4599208 L11,11.959 L9.5,11.9599208 C9.22385763,11.9599208 9,11.7360632 9,11.4599208 C9,11.1837785 9.22385763,10.9599208 9.5,10.9599208 L11,10.959 L11,9.45992083 L11.0040493,9.41513236 C9.30592855,9.17426175 8,7.71463885 8,5.95 C8,4.01700338 9.56700338,2.45 11.5,2.45 Z M4.5,7.95992083 C3.11928813,7.95992083 2,9.07920896 2,10.4599208 C2,11.8406327 3.11928813,12.9599208 4.5,12.9599208 C5.88071187,12.9599208 7,11.8406327 7,10.4599208 C7,9.07920896 5.88071187,7.95992083 4.5,7.95992083 Z M11.5,3.45 C10.1192881,3.45 9,4.56928813 9,5.95 C9,7.33071187 10.1192881,8.45 11.5,8.45 C12.8807119,8.45 14,7.33071187 14,5.95 C14,4.56928813 12.8807119,3.45 11.5,3.45 Z"/>
</svg>
