<svg xmlns="http://www.w3.org/2000/svg" width="16" height="16" viewBox="0 0 16 16">
  <path fill-rule="evenodd" d="M7.79849403,3.14623592 L7.86777639,3.08842176 C8.0383564,2.97040188 8.26594812,2.97053754 8.4363873,3.0887607 L8.50560069,3.14665742 L13.1287695,7.77534111 C13.2219777,7.86866056 13.2745379,7.99502891 13.2750054,8.12692314 C13.2758666,8.37238151 13.0997113,8.57715152 12.8666126,8.62030851 L12.7767659,8.62868059 L9.635,8.64 L9.63538732,12.749984 C9.63538732,13.0261264 9.4115297,13.249984 9.13538732,13.249984 L7.13538732,13.249984 C6.85924495,13.249984 6.63538732,13.0261264 6.63538732,12.749984 L6.635,8.65 L3.50176055,8.66133893 C3.39532798,8.6617137 3.29228681,8.62814206 3.20711233,8.56658142 L3.14680765,8.51525609 C2.97306424,8.34186698 2.95350411,8.0724624 3.0883012,7.87745658 L3.14608594,7.80814968 L7.79849403,3.14623592 L7.79849403,3.14623592 L7.86777639,3.08842176 L7.79849403,3.14623592 Z"/>
</svg>
