<svg xmlns="http://www.w3.org/2000/svg" width="16" height="16" viewBox="0 0 16 16">
  <path fill-rule="evenodd" d="M10.5123299,2.44393016 C10.5861937,2.57452542 10.625,2.72188915 10.625,2.871786 L10.625,13.378368 C10.625,13.8597571 10.2332492,14.25 9.75,14.25 C9.59658778,14.25 9.44587179,14.2098207 9.31296579,14.1334912 L4.93629427,11.5879516 L1.875,11.6199164 C1.39175084,11.6199164 1,11.2296735 1,10.7482844 L1,5.51696444 C1,5.03557539 1.39175084,4.64533247 1.875,4.64533247 L4.9375,4.6148959 L9.32049091,2.1123904 C9.74151411,1.87609215 10.2751186,2.02452756 10.5123299,2.44393016 Z M12.2768704,3.78171556 C12.5592991,3.91749784 12.8276012,4.08052929 13.0780501,4.26820755 C14.2788959,5.1680826 15,6.5754848 15,8.10142377 C15,9.63318338 14.2733544,11.0453283 13.0648035,11.9445312 C12.8126861,12.1321151 12.5426544,12.2947861 12.2584826,12.4299242 C12.0404308,12.533619 11.7792789,12.4415947 11.6751835,12.2243822 C11.5710881,12.0071697 11.6634679,11.7470231 11.8815197,11.6433283 C12.1139105,11.5328146 12.3348379,11.3997249 12.5411914,11.2461908 C13.530899,10.5098148 14.125,9.35525374 14.125,8.10142377 C14.125,6.85235222 13.5354372,5.70168343 12.5520378,4.96475569 C12.3470441,4.81114007 12.1275243,4.67775077 11.8965508,4.56670642 C11.6789439,4.46208831 11.5876762,4.20155239 11.6926985,3.98478315 C11.7977209,3.7680139 12.0592636,3.67709745 12.2768704,3.78171556 Z M12.2721734,5.86659981 C12.8912605,6.43987885 13.25,7.24254073 13.25,8.10142377 C13.25,8.95938584 12.8920328,9.76126773 12.2741051,10.3344574 C12.0972748,10.4984852 11.8204408,10.4886585 11.6557791,10.3125088 C11.4911175,10.1363591 11.5009822,9.8605907 11.6778125,9.69656286 C12.1197915,9.28658325 12.375,8.7148909 12.375,8.10142377 C12.375,7.48729943 12.1192395,6.91504813 11.6764299,6.5050032 C11.4994584,6.3411264 11.4893565,6.06536653 11.6538665,5.8890763 C11.8183766,5.71278607 12.095202,5.702723 12.2721734,5.86659981 Z"/>
</svg>
