<svg xmlns="http://www.w3.org/2000/svg" width="16" height="16" viewBox="0 0 16 16">
  <path d="M12,1 C13.6568542,1 15,2.34314575 15,4 L15,12 C15,13.6568542 13.6568542,15 12,15 L4,15 C2.34314575,15 1,13.6568542 1,12 L1,4 C1,2.34314575 2.34314575,1 4,1 L12,1 Z M12,2 L4,2 C2.8954305,2 2,2.8954305 2,4 L2,12 C2,13.1045695 2.8954305,14 4,14 L12,14 C13.1045695,14 14,13.1045695 14,12 L14,4 C14,2.8954305 13.1045695,2 12,2 Z M8,5 C9.65685425,5 11,6.34314575 11,8 C11,9.65685425 9.65685425,11 8,11 C6.34314575,11 5,9.65685425 5,8 C5,6.34314575 6.34314575,5 8,5 Z M8,6 C6.8954305,6 6,6.8954305 6,8 C6,9.1045695 6.8954305,10 8,10 C9.1045695,10 10,9.1045695 10,8 C10,6.8954305 9.1045695,6 8,6 Z M11.75,4 C12.1642136,4 12.5,4.33578644 12.5,4.75 C12.5,5.16421356 12.1642136,5.5 11.75,5.5 C11.3357864,5.5 11,5.16421356 11,4.75 C11,4.33578644 11.3357864,4 11.75,4 Z"/>
</svg>
