<svg xmlns="http://www.w3.org/2000/svg" width="16" height="16" viewBox="0 0 16 16">
  <path d="M13.9466867,2 C14.4982492,2 14.9466867,2.4484375 14.9466867,3 L14.9466867,13.9823235 C14.9466867,14.533886 14.4982492,14.9823235 13.9466867,14.9823235 L2.94883056,14.9823235 C2.39726806,14.9823235 1.94883056,14.533886 1.94883056,13.9823235 L1.94883056,3 C1.94883056,2.4484375 2.39726806,2 2.94883056,2 L13.9466867,2 Z M13.9466867,3 L2.94883056,3 L2.94883056,13.9823235 L13.9466867,13.9823235 L13.9466867,3 Z M5.592997,10.7659495 C6.00721056,10.7659495 6.342997,11.1017359 6.342997,11.5159495 C6.342997,11.930163 6.00721056,12.2659495 5.592997,12.2659495 C5.17878344,12.2659495 4.842997,11.930163 4.842997,11.5159495 C4.842997,11.1017359 5.17878344,10.7659495 5.592997,10.7659495 Z M11.7850579,11.0159495 C12.0616204,11.0159495 12.2850579,11.239387 12.2850579,11.5159495 C12.2850579,11.792512 12.0616204,12.0159495 11.7850579,12.0159495 L7.842997,12.0159495 C7.5664345,12.0159495 7.342997,11.792512 7.342997,11.5159495 C7.342997,11.239387 7.5664345,11.0159495 7.842997,11.0159495 L11.7850579,11.0159495 Z M5.592997,7.734375 C6.00721056,7.734375 6.342997,8.07016144 6.342997,8.484375 C6.342997,8.89858856 6.00721056,9.234375 5.592997,9.234375 C5.17878344,9.234375 4.842997,8.89858856 4.842997,8.484375 C4.842997,8.07016144 5.17878344,7.734375 5.592997,7.734375 Z M11.7850579,8 C12.0616204,8 12.2850579,8.2234375 12.2850579,8.5 C12.2850579,8.7765625 12.0616204,9 11.7850579,9 L7.842997,9 C7.5664345,9 7.342997,8.7765625 7.342997,8.5 C7.342997,8.2234375 7.5664345,8 7.842997,8 L11.7850579,8 Z M5.592997,4.77215208 C6.00721056,4.77215208 6.342997,5.10793852 6.342997,5.52215208 C6.342997,5.93636564 6.00721056,6.27215208 5.592997,6.27215208 C5.17878344,6.27215208 4.842997,5.93636564 4.842997,5.52215208 C4.842997,5.10793852 5.17878344,4.77215208 5.592997,4.77215208 Z M11.7850579,5.02215208 C12.0616204,5.02215208 12.2850579,5.24558958 12.2850579,5.52215208 C12.2850579,5.79871458 12.0616204,6.02215208 11.7850579,6.02215208 L7.842997,6.02215208 C7.5664345,6.02215208 7.342997,5.79871458 7.342997,5.52215208 C7.342997,5.24558958 7.5664345,5.02215208 7.842997,5.02215208 L11.7850579,5.02215208 Z"/>
</svg>
