<svg xmlns="http://www.w3.org/2000/svg" viewBox="0 0 16 16"><path fill-rule="evenodd" d="M14 1a1 1 0 011 1v12a1 1 0 01-1 1H2a1 1 0 01-1-1V2a1 1 0 011-1h12zm0 1H2v12h12V2zM5.36 6.106c.107-.091.283-.074.422.031l.066.06.174.189c.143.156.12.284.032.474-.066.143-.277.483-.612.844l-.131.136v3.978c0 .168-.116.31-.27.342l-.068.007h-.295a.34.34 0 01-.33-.279l-.007-.07v-3.22l-.23.135a3.37 3.37 0 01-.33.163c-.184.075-.306.07-.428-.032l-.06-.06-.175-.188c-.144-.156-.158-.369-.032-.475l.634-.414c.217-.148.443-.308.593-.434.373-.313 1.046-1.187 1.046-1.187zm2.688-2.214a.36.36 0 01.356.279l.008.07v.754c0 .096.068.178.161.202l.059.008h.664c.176 0 .323.119.357.277l.008.07v.232a.352.352 0 01-.292.341l-.073.007h-.664a.219.219 0 00-.212.154l-.008.056v.44c0 .098.068.179.161.203l.059.008h.664l.02.004.019-.004h3.3c.176 0 .323.12.358.277l.007.07v.233a.353.353 0 01-.292.34l-.073.007h-1.061a.223.223 0 00-.216.157l-.008.057v3.684c0 .168-.116.309-.27.342l-.067.007h-.296a.34.34 0 01-.33-.279l-.007-.07V8.134a.216.216 0 00-.164-.206l-.06-.008h-.821l-.02-.003-.02.003h-.663a.218.218 0 00-.212.154l-.008.056v.397c0 .097.068.179.161.203l.059.008h.664a.36.36 0 01.357.277l.008.07v.232a.352.352 0 01-.292.34l-.073.008h-.664a.219.219 0 00-.212.154l-.008.056v.3c0 .153.165.255.31.192l.31-.136c.18-.08.297-.137.297-.137a.386.386 0 01.435.201l.027.071.063.24c.047.174-.03.28-.194.398l-.076.052c-.217.14-.781.511-1.684.732-.911.223-1.31.268-1.596.266-.25-.002-.375-.056-.438-.203l-.024-.069-.064-.24a.364.364 0 01.2-.425l.071-.025s.61-.116 1.218-.238a.216.216 0 00.166-.148l.009-.058v-.773a.212.212 0 00-.162-.203l-.058-.007h-.695a.361.361 0 01-.357-.278l-.008-.07v-.232c0-.168.126-.308.292-.34l.073-.007h.695a.219.219 0 00.212-.155l.008-.056V8.13a.212.212 0 00-.162-.202l-.058-.008h-.695a.361.361 0 01-.357-.277l-.008-.07V7.34c0-.167.126-.308.292-.34l.073-.007h.695a.218.218 0 00.212-.154l.008-.056v-.44a.212.212 0 00-.162-.203l-.058-.008h-.695a.361.361 0 01-.357-.277l-.008-.07v-.232c0-.168.126-.309.292-.341l.073-.007h.695a.218.218 0 00.212-.154l.008-.056V4.24c0-.169.124-.31.29-.342l.074-.007h.242zm-2.67-.002c.105-.088.278-.07.414.033l.065.06.171.186c.142.154.12.279.035.465-.085.186-.405.714-.95 1.176-.55.466-1.052.721-1.262.806-.18.072-.298.066-.418-.035l-.06-.058-.172-.186c-.142-.154-.157-.362-.035-.465l.513-.332c.242-.16.513-.35.683-.492.363-.305 1.016-1.158 1.016-1.158zm5.436-.049l.053.002.052-.002c.545.028.902.517.81 1.058-.089.531-.745 1.636-.745 1.636a.125.125 0 01-.117.07.125.125 0 01-.117-.07l-.155-.273c-.2-.362-.53-.998-.591-1.363-.092-.541.265-1.03.81-1.058zm.053.477a.407.407 0 00-.416.398c0 .22.186.397.416.397.23 0 .416-.178.416-.397a.407.407 0 00-.416-.398z"/></svg>