<svg xmlns="http://www.w3.org/2000/svg" width="16" height="16" viewBox="0 0 16 16">
  <path d="M4.8340905,6.94469683 C5.02836645,7.13897278 5.02836645,7.45395633 4.8340905,7.64823228 L2.72348417,9.75883861 C1.75210443,10.7302184 1.75210443,12.3051361 2.72348417,13.2765158 C3.69486391,14.2478956 5.26978165,14.2478956 6.24116139,13.2765158 L8.35176772,11.1659095 C8.54604367,10.9716335 8.86102722,10.9716335 9.05530317,11.1659095 C9.24957911,11.3601854 9.24957911,11.675169 9.05530317,11.8694449 L6.94469683,13.9800513 C5.5847652,15.3399829 3.37988037,15.3399829 2.01994873,13.9800513 C0.660017091,12.6201196 0.660017091,10.4152348 2.01994873,9.05530317 L4.13055506,6.94469683 C4.32483101,6.75042089 4.63981456,6.75042089 4.8340905,6.94469683 Z M10.4623741,5.53762595 C10.65665,5.7319019 10.65665,6.04688544 10.4623741,6.24116139 L6.24116139,10.4623741 C6.04688544,10.65665 5.7319019,10.65665 5.53762595,10.4623741 C5.34335,10.2680981 5.34335,9.95311456 5.53762595,9.75883861 L9.75883861,5.53762595 C9.95311456,5.34335 10.2680981,5.34335 10.4623741,5.53762595 Z M13.9800513,2.01994873 C15.3399829,3.37988037 15.3399829,5.5847652 13.9800513,6.94469683 L11.8694449,9.05530317 C11.675169,9.24957911 11.3601854,9.24957911 11.1659095,9.05530317 C10.9716335,8.86102722 10.9716335,8.54604367 11.1659095,8.35176772 L13.2765158,6.24116139 C14.2478956,5.26978165 14.2478956,3.69486391 13.2765158,2.72348417 C12.3051361,1.75210443 10.7302184,1.75210443 9.75883861,2.72348417 L7.64823228,4.8340905 C7.45395633,5.02836645 7.13897278,5.02836645 6.94469683,4.8340905 C6.75042089,4.63981456 6.75042089,4.32483101 6.94469683,4.13055506 L9.05530317,2.01994873 C10.4152348,0.660017091 12.6201196,0.660017091 13.9800513,2.01994873 Z"/>
</svg>
