<svg xmlns="http://www.w3.org/2000/svg" width="16" height="16" viewBox="0 0 16 16">
  <path fill-rule="evenodd" d="M8.5,1 C10.4329966,1 12,2.56700338 12,4.5 L12,6 L13,6 C13.5522847,6 14,6.44771525 14,7 L14,14 C14,14.5522847 13.5522847,15 13,15 L4,15 C3.44771525,15 3,14.5522847 3,14 L3,7 C3,6.44771525 3.44771525,6 4,6 L5,6 L5,4.5 C5,2.56700338 6.56700338,1 8.5,1 Z M8.5,8 C7.67157288,8 7,8.67157288 7,9.5 C7,10.0434746 7.2890301,10.5194427 7.72176381,10.7825776 L7.93798263,12.5038611 C7.97341244,12.7872995 8.21435578,13 8.5,13 C8.75390597,13 8.97249273,12.8319403 9.04281641,12.5955259 L9.06201737,12.5038611 L9.27823619,10.7825776 C9.7109699,10.5194427 10,10.0434746 10,9.5 C10,8.67157288 9.32842712,8 8.5,8 Z M8.5,2.5 C7.3954305,2.5 6.5,3.3954305 6.5,4.5 L6.5,6 L10.5,6 L10.5,4.5 C10.5,3.3954305 9.6045695,2.5 8.5,2.5 Z"/>
</svg>
