<svg xmlns="http://www.w3.org/2000/svg" width="16" height="16" viewBox="0 0 16 16">
  <path fill-rule="evenodd" d="M8,2 C8.55228475,2 9,2.44771525 9,3 L9,4.5 C9,4.77614237 8.77614237,5 8.5,5 C8.22385763,5 8,4.77614237 8,4.5 L8,3 L2,3 L2,14 L8,14 L8,12.5 C8,12.2238576 8.22385763,12 8.5,12 C8.77614237,12 9,12.2238576 9,12.5 L9,14 C9,14.5522847 8.55228475,15 8,15 L2,15 C1.44771525,15 1,14.5522847 1,14 L1,3 C1,2.44771525 1.44771525,2 2,2 L8,2 Z M10.9490176,5.03974605 L11.006873,4.97049816 C11.1804394,4.79693181 11.4498638,4.77764666 11.6447319,4.91264271 L11.7139798,4.97049816 L14.8899283,8.14644661 C15.0634946,8.32001296 15.0827798,8.58943736 14.9477837,8.7843055 L14.8899283,8.85355339 L11.7139798,12.0295018 C11.5187177,12.224764 11.2021352,12.224764 11.006873,12.0295018 C10.8333067,11.8559355 10.8140215,11.5865111 10.9490176,11.3916429 L11.006873,11.3223951 L13.328,9 L4.5,9 C4.22385763,9 4,8.77614237 4,8.5 C4,8.22385763 4.22385763,8 4.5,8 L13.33,8 L11.006873,5.67760494 C10.8333067,5.50403859 10.8140215,5.23461419 10.9490176,5.03974605 L11.006873,4.97049816 L10.9490176,5.03974605 Z"/>
</svg>
