<svg xmlns="http://www.w3.org/2000/svg" width="16" height="16" viewBox="0 0 16 16">
  <path d="M7.48867574,1.10398629 C7.75502705,1.10311845 8.01072116,1.20853969 8.19906099,1.39687952 L14.3951832,7.59300171 C14.7857075,7.983526 14.7857075,8.61669098 14.3951832,9.00721527 L8.94630152,14.4560969 C8.55577722,14.8466212 7.92261224,14.8466212 7.53208795,14.4560969 L1.33596576,8.25997475 C1.14762593,8.07163492 1.04220469,7.81594081 1.04307253,7.5495895 L1.06251211,1.62178395 C1.06341324,1.34692251 1.28600875,1.124327 1.56087019,1.12342587 L7.48867574,1.10398629 Z M7.49195421,2.1039863 L2.06087822,2.12179198 L2.04307254,7.55286797 L8.23919473,13.7489902 L13.6880764,8.30010849 L7.49195421,2.1039863 Z M4.54307253,3.10398629 C5.37149966,3.10398629 6.04307253,3.77555917 6.04307253,4.60398629 C6.04307253,5.43241342 5.37149966,6.10398629 4.54307253,6.10398629 C3.71464541,6.10398629 3.04307253,5.43241342 3.04307253,4.60398629 C3.04307253,3.77555917 3.71464541,3.10398629 4.54307253,3.10398629 Z M4.54307253,4.10398629 C4.26693016,4.10398629 4.04307253,4.32784392 4.04307253,4.60398629 C4.04307253,4.88012867 4.26693016,5.10398629 4.54307253,5.10398629 C4.81921491,5.10398629 5.04307253,4.88012867 5.04307253,4.60398629 C5.04307253,4.32784392 4.81921491,4.10398629 4.54307253,4.10398629 Z"/>
</svg>
