<svg xmlns="http://www.w3.org/2000/svg" width="16" height="16" viewBox="0 0 16 16">
  <path d="M3.5,7 C4.328125,7 5,7.671875 5,8.5 C4.9984375,9.328125 4.328125,9.9984375 3.5,10 C2.671875,10 2,9.328125 2,8.5 C2,7.671875 2.671875,7 3.5,7 Z M8.5,7 C9.328125,7 10,7.671875 10,8.5 C9.9984375,9.328125 9.328125,9.9984375 8.5,10 C7.671875,10 7,9.328125 7,8.5 C7,7.671875 7.671875,7 8.5,7 Z M13.5,7 C14.328125,7 15,7.671875 15,8.5 C14.9984375,9.328125 14.328125,9.9984375 13.5,10 C12.671875,10 12,9.328125 12,8.5 C12,7.671875 12.671875,7 13.5,7 Z M3.5,8 C3.2234375,8 3,8.2234375 3,8.5 C3,8.7765625 3.2234375,9 3.5,9 C3.7765625,9 4,8.7765625 4,8.5 C4,8.2234375 3.7765625,8 3.5,8 Z M8.5,8 C8.2234375,8 8,8.2234375 8,8.5 C8,8.7765625 8.2234375,9 8.5,9 C8.7765625,9 9,8.7765625 9,8.5 C9,8.2234375 8.7765625,8 8.5,8 Z M13.5,8 C13.2234375,8 13,8.2234375 13,8.5 C13,8.7765625 13.2234375,9 13.5,9 C13.7765625,9 14,8.7765625 14,8.5 C14,8.2234375 13.7765625,8 13.5,8 Z"/>
</svg>
