<svg xmlns="http://www.w3.org/2000/svg" viewBox="0 0 16 16"><path fill-rule="evenodd" d="M11 1a2 2 0 011.732 3H14a1 1 0 011 1v1a1 1 0 01-1 1v7a1 1 0 01-1 1H3a1 1 0 01-1-1V7a1 1 0 01-1-1V5a1 1 0 011-1h1.268a2 2 0 013.141-2.423L8 3.285l1.474-1.582C9.847 1.272 10.392 1 11 1zM7.5 11H3v3h4.5v-3zm5.5 0H8.5v3H13v-3zM7.5 7H3v3h4.5V7zM13 7H8.5v3H13V7zm1-2H2v1h12V5zm-3-3a1.01 1.01 0 00-.697.282l-.097.101L8.7 4h2.29l.086-.003A1 1 0 0011 2zM5 2a1 1 0 00-.193 1.981l.117.016L5.01 4H7.3L5.794 2.383l-.097-.1A1.01 1.01 0 005 2z"/></svg>