<svg xmlns="http://www.w3.org/2000/svg" width="93" height="85" viewBox="0 0 93 85">
  <g fill="none" fill-rule="evenodd" transform="translate(-3 -4)">
    <rect width="96" height="96" fill="#D8D8D8" opacity="0"/>
    <ellipse cx="48" cy="84" fill="#F2F2F2" rx="45" ry="5"/>
    <path fill="#FAFAFA" stroke="#D8D8D8" d="M11.5,60.6122648 L11.5,72 C11.5,72.8284271 12.1715729,73.5 13,73.5 L81,73.5 C81.8284271,73.5 82.5,72.8284271 82.5,72 L82.5,50.7392714 L67.1057312,33.9461986 C67.0763657,33.9141636 67.045622,33.8834198 67.0135869,33.8540544 C66.4029085,33.2942657 65.4540574,33.3355201 64.8792831,33.9618517 L42.4796531,56.3663008 L42.1265198,56.0379339 L29.0677976,43.8949704 L29.0174202,43.8464292 C28.408689,43.2845235 27.4597005,43.3224831 26.8977959,43.931213 L11.5,60.6122648 Z"/>
    <circle cx="25" cy="31" r="4.5" stroke="#D8D8D8"/>
    <rect width="71" height="55" x="11.5" y="18.5" stroke="#D8D8D8" rx="2"/>
    <rect width="71" height="55" x="11.5" y="18.5" stroke="#D8D8D8" rx="2"/>
    <g fill="#D8D8D8" transform="translate(82.16 4.04)">
      <circle cx="10" cy="13" r="3" opacity=".5"/>
      <circle cx="2" cy="9" r="2" opacity=".3"/>
      <path d="M8.5,1 C7.67157288,1 7,1.67157288 7,2.5 C7,3.32842712 7.67157288,4 8.5,4 C9.32842712,4 10,3.32842712 10,2.5 C10,1.67157288 9.32842712,1 8.5,1 Z M8.5,7.10542736e-15 C9.88071187,7.10542736e-15 11,1.11928813 11,2.5 C11,3.88071187 9.88071187,5 8.5,5 C7.11928813,5 6,3.88071187 6,2.5 C6,1.11928813 7.11928813,7.10542736e-15 8.5,7.10542736e-15 Z" opacity=".3"/>
    </g>
  </g>
</svg>
