<svg xmlns="http://www.w3.org/2000/svg" width="90" height="87" viewBox="0 0 90 87">
  <g fill="none" fill-rule="evenodd" transform="translate(-4 -4)">
    <rect width="96" height="96" fill="#D8D8D8" opacity="0"/>
    <path fill="#FFF" stroke="#D8D8D8" d="M22.2697653,21.2137012 C20.6545341,21.5582839 19.5,22.9850984 19.5,24.6366762 L19.5,49.8917199 C19.5,59.5821005 25.2832188,68.3372307 34.1962193,72.1401109 L47.6264646,77.8703489 C48.5038909,78.2447174 49.4961091,78.2447174 50.3735354,77.8703489 L63.8037807,72.1401109 C72.7167812,68.3372307 78.5,59.5821005 78.5,49.8917199 L78.5,24.6366762 C78.5,22.9850984 77.3454659,21.5582839 75.7302347,21.2137012 L49.7302347,15.6670346 C49.2488279,15.5643345 48.7511721,15.5643345 48.2697653,15.6670346 L22.2697653,21.2137012 Z"/>
    <g transform="translate(40 30)">
      <path fill="#FAFAFA" stroke="#D8D8D8" d="M7.5,16.5 L7.5,32 C7.5,32.8284271 8.17157288,33.5 9,33.5 C9.82842712,33.5 10.5,32.8284271 10.5,32 L10.5,16.5 L7.5,16.5 Z"/>
      <rect width="5" height="1" x="10" y="26" fill="#D8D8D8" rx=".5"/>
      <rect width="5" height="1" x="10" y="22" fill="#D8D8D8" rx=".5"/>
      <circle cx="9" cy="9" r="8.5" fill="#FAFAFA" stroke="#D8D8D8"/>
      <circle cx="9" cy="9" r="4.5" fill="#FFF" stroke="#D8D8D8"/>
    </g>
    <ellipse cx="49" cy="86" fill="#F2F2F2" rx="45" ry="5"/>
    <g fill="#D8D8D8" transform="translate(78.16 4.04)">
      <circle cx="10" cy="13" r="3" opacity=".5"/>
      <circle cx="2" cy="9" r="2" opacity=".3"/>
      <path d="M8.5,1 C7.67157288,1 7,1.67157288 7,2.5 C7,3.32842712 7.67157288,4 8.5,4 C9.32842712,4 10,3.32842712 10,2.5 C10,1.67157288 9.32842712,1 8.5,1 Z M8.5,7.10542736e-15 C9.88071187,7.10542736e-15 11,1.11928813 11,2.5 C11,3.88071187 9.88071187,5 8.5,5 C7.11928813,5 6,3.88071187 6,2.5 C6,1.11928813 7.11928813,7.10542736e-15 8.5,7.10542736e-15 Z" opacity=".3"/>
    </g>
  </g>
</svg>
