<svg xmlns="http://www.w3.org/2000/svg" width="90" height="88" viewBox="0 0 90 88">
  <g fill="none" fill-rule="evenodd" transform="translate(-4 -3)">
    <rect width="96" height="96" fill="#D8D8D8" opacity="0"/>
    <ellipse cx="49" cy="86" fill="#F2F2F2" rx="45" ry="5"/>
    <g stroke="#D8D8D8" transform="rotate(-8 143.93 -42.979)">
      <rect width="7" height="19" x="1" y="21" fill="#FAFAFA" rx="2"/>
      <path fill="#FAFAFA" d="M10.8736633,41.4199548 C10.8104883,41.4199548 10.7473763,41.4239459 10.6847045,41.4319042 C9.86287689,41.5362633 9.28125369,42.287086 9.38561275,43.1089136 L11.5443429,60.1089136 C11.6394986,60.858265 12.2770247,61.4199548 13.0323935,61.4199548 L16.1748757,61.4199548 C16.9302445,61.4199548 17.5677706,60.858265 17.6629263,60.1089136 L19.8216565,43.1089136 C19.8296148,43.0462418 19.8336059,42.9831299 19.8336059,42.9199548 C19.8336059,42.0915277 19.162033,41.4199548 18.3336059,41.4199548 L10.8736633,41.4199548 Z"/>
      <path fill="#FFF" d="M6.18492396,14.3994139 C5.49369034,14.5479211 5,15.1589431 5,15.8659496 L5,45.1340504 C5,45.8410569 5.49369034,46.4520789 6.18492396,46.6005861 L66.184924,59.4912111 C66.2884734,59.513458 66.3940878,59.5246754 66.5,59.5246754 C67.3284271,59.5246754 68,58.8531025 68,58.0246754 L68,2.97532465 C68,2.86941241 67.9887827,2.763798 67.9665357,2.66024861 C67.7925241,1.85030328 66.9948693,1.33477721 66.184924,1.50878891 L6.18492396,14.3994139 Z"/>
      <path fill="#FAFAFA" d="M60.0037917,2.86333895 L60.5236588,58.2648486 L66.080424,59.4645943 C66.1894478,59.4881334 66.3006173,59.5 66.4120933,59.5 C67.2881455,59.5 68,58.7822686 68,57.894856 L68,3.10557927 C68,2.99232089 67.9881413,2.87938372 67.964624,2.76865444 C67.780501,1.90172832 66.936587,1.35098915 66.0816147,1.53558232 L60.0037917,2.86333895 Z"/>
    </g>
    <g fill="#D8D8D8" transform="translate(80.16 3.04)">
      <circle cx="10" cy="13" r="3" opacity=".5"/>
      <circle cx="2" cy="9" r="2" opacity=".3"/>
      <path d="M8.5,1 C7.67157288,1 7,1.67157288 7,2.5 C7,3.32842712 7.67157288,4 8.5,4 C9.32842712,4 10,3.32842712 10,2.5 C10,1.67157288 9.32842712,1 8.5,1 Z M8.5,7.10542736e-15 C9.88071187,7.10542736e-15 11,1.11928813 11,2.5 C11,3.88071187 9.88071187,5 8.5,5 C7.11928813,5 6,3.88071187 6,2.5 C6,1.11928813 7.11928813,7.10542736e-15 8.5,7.10542736e-15 Z" opacity=".3"/>
    </g>
  </g>
</svg>
