<svg xmlns="http://www.w3.org/2000/svg" width="94" height="84" viewBox="0 0 94 84">
  <g fill="none" fill-rule="evenodd" transform="translate(-2 -6)">
    <rect width="96" height="96" opacity=".2"/>
    <ellipse cx="47" cy="85" fill="#F2F2F2" rx="45" ry="5"/>
    <path fill="#FAFAFA" stroke="#D8D8D8" d="M18.7183099,70.6200055 L18.7183099,70.6481227 L18.6764478,70.6668568 L18.7183099,70.6200055 Z M18.7183099,70.5 L18.825536,70.5 L24.725536,63.8968254 L65.1690141,63.8968254 C65.3506665,63.8968254 65.5,63.7484963 65.5,63.5714286 L65.5,19.8253968 C65.5,19.6483291 65.3506665,19.5 65.1690141,19.5 L7.83098592,19.5 C7.64933351,19.5 7.5,19.6483291 7.5,19.8253968 L7.5,63.5714286 C7.5,63.7484963 7.64933351,63.8968254 7.83098592,63.8968254 L18.7183099,63.8968254 L18.7183099,70.5 Z"/>
    <path fill="#FFF" stroke="#D8D8D8" d="M73.9677354,77.5 L74.0915493,77.5 L74.0915493,70.8968254 L85.1549296,70.8968254 C85.3461776,70.8968254 85.5,70.7465841 85.5,70.5714286 L85.5,26.8253968 C85.5,26.6502413 85.3461776,26.5 85.1549296,26.5 L26.8450704,26.5 C26.6538224,26.5 26.5,26.6502413 26.5,26.8253968 L26.5,70.5714286 C26.5,70.7465841 26.6538224,70.8968254 26.8450704,70.8968254 L67.9677354,70.8968254 L73.9677354,77.5 Z"/>
    <rect width="40" height="1" x="35" y="38" fill="#D8D8D8" rx=".5"/>
    <path fill="#D8D8D8" d="M35.5,47.6 L58.5,47.6 C58.7761424,47.6 59,47.8238576 59,48.1 C59,48.3761424 58.7761424,48.6 58.5,48.6 L35.5,48.6 C35.2238576,48.6 35,48.3761424 35,48.1 C35,47.8238576 35.2238576,47.6 35.5,47.6 Z"/>
    <g fill="#D8D8D8" transform="translate(82.16 6.04)">
      <circle cx="10" cy="13" r="3" opacity=".5"/>
      <circle cx="2" cy="9" r="2" opacity=".3"/>
      <path d="M8.5,1 C7.67157288,1 7,1.67157288 7,2.5 C7,3.32842712 7.67157288,4 8.5,4 C9.32842712,4 10,3.32842712 10,2.5 C10,1.67157288 9.32842712,1 8.5,1 Z M8.5,7.10542736e-15 C9.88071187,7.10542736e-15 11,1.11928813 11,2.5 C11,3.88071187 9.88071187,5 8.5,5 C7.11928813,5 6,3.88071187 6,2.5 C6,1.11928813 7.11928813,7.10542736e-15 8.5,7.10542736e-15 Z" opacity=".3"/>
    </g>
  </g>
</svg>
