<svg xmlns="http://www.w3.org/2000/svg" width="90" height="87" viewBox="0 0 90 87">
  <g fill="none" fill-rule="evenodd" transform="translate(-4 -4)">
    <rect width="96" height="96" fill="#D8D8D8" opacity="0"/>
    <ellipse cx="49" cy="86" fill="#F2F2F2" rx="45" ry="5"/>
    <g fill="#D8D8D8" transform="translate(78.16 4.04)">
      <circle cx="10" cy="13" r="3" opacity=".5"/>
      <circle cx="2" cy="9" r="2" opacity=".3"/>
      <path d="M8.5,1 C7.67157288,1 7,1.67157288 7,2.5 C7,3.32842712 7.67157288,4 8.5,4 C9.32842712,4 10,3.32842712 10,2.5 C10,1.67157288 9.32842712,1 8.5,1 Z M8.5,7.10542736e-15 C9.88071187,7.10542736e-15 11,1.11928813 11,2.5 C11,3.88071187 9.88071187,5 8.5,5 C7.11928813,5 6,3.88071187 6,2.5 C6,1.11928813 7.11928813,7.10542736e-15 8.5,7.10542736e-15 Z" opacity=".3"/>
    </g>
    <g transform="translate(17 19)">
      <path fill="#FFF" stroke="#D8D8D8" d="M6,20 L6,64 C6,65.1045695 6.8954305,66 8,66 L56,66 C57.1045695,66 58,65.1045695 58,64 L58,20 L58,20"/>
      <path stroke="#D8D8D8" d="M37,66 L37,49.125 C37,48.5036797 37.4477153,48 38,48 L48,48 C48.5522847,48 49,48.5036797 49,49.125 L49,66"/>
      <rect width="13" height="1" x="11" y="34" fill="#D8D8D8"/>
      <rect width="6" height="1" x="11" y="37" fill="#D8D8D8"/>
      <path fill="#FAFAFA" stroke="#D8D8D8" d="M0.549592373,23.3772972 C0.623145145,23.4457593 0.715090967,23.5273171 0.825391479,23.6195105 C1.22269239,23.9515902 1.70176781,24.2852818 2.262308,24.5976294 C3.87277947,25.4950262 5.8086968,26.034398 8.0757167,26.034398 C8.8580853,26.034398 9.34444164,25.8120842 11.5241006,24.597621 C13.4847822,23.5051676 14.707983,23.034398 16.1520957,23.034398 C17.5893731,23.034398 18.5895051,23.4520882 20.5181028,24.6052607 C20.680374,24.7023406 20.7575343,24.7484479 20.8413192,24.7982541 C22.3434336,25.6911902 23.1935617,26.034398 24.2284454,26.034398 C25.1394639,26.034398 25.8602968,25.7219297 27.8779592,24.59763 C29.9078076,23.4665398 30.9789516,23.034398 32.3041216,23.034398 C33.2825407,23.034398 33.5968207,23.1821391 36.1371982,24.5976236 C37.9315943,25.5974513 39.093281,26.034398 40.3802955,26.034398 C41.2341491,26.034398 41.8607233,25.7563896 43.9401935,24.5976315 C45.9362831,23.4853362 47.0779318,23.034398 48.4558515,23.034398 C48.9777567,23.034398 49.5309299,23.2098393 50.2292336,23.554885 C50.493031,23.6852326 50.7690676,23.8347045 51.1467518,24.0484886 C51.131271,24.0397258 51.890717,24.4729941 52.1143889,24.5976273 C53.8725463,25.5772982 55.1350144,26.034398 56.5317355,26.034398 C57.9320261,26.034398 60.4491294,25.1158728 64.0233679,23.2744823 L58.3554723,1.6201785 C58.1827438,0.960266272 57.5865001,0.5 56.904357,0.5 L7.03813409,0.5 C6.34003993,0.5 5.7342278,0.98158758 5.57678204,1.66169513 C4.30436586,7.15806292 4.30436586,7.15806292 3.03194969,12.6544307 C1.78070695,18.0593371 1.75988585,18.1492765 0.549592373,23.3772972 Z"/>
    </g>
  </g>
</svg>
