<svg xmlns="http://www.w3.org/2000/svg" width="16" height="16" viewBox="0 0 16 16">
  <path fill-rule="evenodd" d="M14.728152,11.4289074 C15.0275661,11.9771496 15.0179958,12.6251965 14.6994411,13.1625012 C14.3863551,13.6970715 13.8121364,14.0238293 13.1928004,14.0211287 L2.75158951,14.0211287 C2.13225357,14.0238293 1.55940201,13.6970715 1.24631607,13.1625012 C0.927761382,12.6251965 0.918191069,11.9771496 1.21760513,11.4289074 L6.43889419,1.90781365 C6.59338638,1.62343865 6.82444107,1.3882824 7.10608169,1.22695428 C7.64475357,0.923438655 8.30237076,0.924805842 8.84104263,1.22832147 C9.12268326,1.3882824 9.35373794,1.62480584 9.50823013,1.90918084 L14.728152,11.4289074 Z M7.97287857,12.2710949 C8.45549576,12.2710949 8.84787857,11.8787121 8.84787857,11.3960949 C8.84787857,10.9134777 8.45549576,10.5210949 7.97287857,10.5210949 C7.49026138,10.5210949 7.09787857,10.9134777 7.09787857,11.3960949 C7.09787857,11.8787121 7.49026138,12.2710949 7.97287857,12.2710949 Z M8.84787857,5.25742303 C8.84787857,5.25468865 8.84787857,5.25058709 8.84787857,5.24785272 C8.84787857,4.76523553 8.45549576,4.37285272 7.97287857,4.37285272 C7.49026138,4.37285272 7.09787857,4.76523553 7.09787857,5.24785272 L7.09787857,5.2820324 C7.09787857,5.33261834 7.10334732,5.38320428 7.11291763,5.43379022 L7.53811294,9.25781365 C7.56135513,9.46152459 7.72268326,9.62148553 7.92502701,9.64336053 C8.16428482,9.66933709 8.38166763,9.49707147 8.40764419,9.25644647 L8.83283951,5.43242303 C8.84240982,5.38183709 8.84787857,5.33125115 8.84787857,5.28066522 L8.84787857,5.25742303 Z"/>
</svg>
