<svg xmlns="http://www.w3.org/2000/svg" viewBox="0 0 16 16"><path fill-rule="evenodd" d="M11.5 6.998a4.5 4.5 0 110 9 4.5 4.5 0 010-9zm0 1a3.5 3.5 0 100 7 3.5 3.5 0 000-7zm-6 4.999a.5.5 0 010 1h-.843a1 1 0 01-.994-.884l-.006-.117H5.5zM6.807-.002a.5.5 0 01.492.41l.008.09V.96a4.68 4.68 0 013.739 3.991l-.002.001.006.067a.5.5 0 01-.41.492l-.09.008a.5.5 0 01-.492-.41l-.002-.018a3.678 3.678 0 00-7.315.156l-.498 5.797h3.279c.234 0 .43.168.47.392l.008.086a.478.478 0 01-.478.478H.782c-.29 0-.5-.208-.5-.456 0-.249.223-.5.5-.5l.452-.001.51-5.88A4.68 4.68 0 015.508.96V.498a.5.5 0 01.41-.492l.09-.008h.8zm4.693 9c.245 0 .449.177.491.41l.008.09v1.498h1.499a.499.499 0 01.09.991l-.09.009H11.5a.499.499 0 01-.492-.41l-.008-.09V9.498c0-.276.223-.5.5-.5z"/></svg>