<svg xmlns="http://www.w3.org/2000/svg" width="16" height="16" viewBox="0 0 16 16">
  <path d="M8,1 C11.8659932,1 15,4.13400675 15,8 C15,11.8659932 11.8659932,15 8,15 C4.13400675,15 1,11.8659932 1,8 C1,4.13400675 4.13400675,1 8,1 Z M8,2 C4.6862915,2 2,4.6862915 2,8 C2,11.3137085 4.6862915,14 8,14 C11.3137085,14 14,11.3137085 14,8 C14,4.6862915 11.3137085,2 8,2 Z M7.909509,10.7 C8.32372256,10.7 8.659509,11.0357864 8.659509,11.45 C8.659509,11.8642136 8.32372256,12.2 7.909509,12.2 C7.49529544,12.2 7.159509,11.8642136 7.159509,11.45 C7.159509,11.0357864 7.49529544,10.7 7.909509,10.7 Z M7.90950939,4 C8.26688998,4 8.56224306,4.26557136 8.60898676,4.61013222 L8.6151077,4.72728377 L8.6151077,4.72728377 L8.35138233,9.08409646 C8.33722122,9.31775489 8.14359656,9.5 7.90950939,9.5 C7.67542223,9.5 7.48179757,9.31775489 7.46763645,9.08409646 L7.20488069,4.74862637 C7.18129549,4.35947068 7.47764893,4.02487809 7.86680462,4.0012929 L7.90950939,4 L7.90950939,4 Z"/>
</svg>
