<svg xmlns="http://www.w3.org/2000/svg" width="16" height="16" viewBox="0 0 16 16">
  <path d="M9.75,13.9978544 C9.75,14.5501391 9.30228475,14.9978544 8.75,14.9978544 L7.25,14.9978544 C6.69771525,14.9978544 6.25,14.5501391 6.25,13.9978544 L6.25,13.9978544 L6.25,13.9978544 L9.75,13.9978544 Z M8.89977312,1.49981472 L8.89956357,1.96162096 L8.89956357,1.96162096 C10.9160864,2.35507892 12.4856262,4.04665352 12.6617397,6.16531034 L13.173,12.0444465 L13.6250001,12.0447718 C13.9012006,12.0449706 14.125,12.2689311 14.125,12.5451317 C14.125,12.8212741 13.9011424,13.0451317 13.625,13.0451317 L2.375,13.0451317 C2.09885763,13.0451317 1.875,12.8212741 1.875,12.5451317 C1.875,12.2689311 2.09879937,12.0449706 2.37499987,12.0447718 L2.827,12.0444465 L2.827,12.0444465 L3.33826026,6.16531034 C3.51437377,4.04665352 5.08391361,2.35507892 7.10043643,1.96162096 L7.10022688,1.49981472 C7.09987475,1.22367247 7.32363077,0.999713295 7.59977312,0.999587994 C7.59984875,0.999587959 7.59992437,0.999587942 7.6,0.99981477 L8.4,0.99981477 C8.67614237,0.999587942 8.9,1.22344557 8.9,1.49958794 C8.9,1.49966357 8.89999998,1.49973919 8.89977312,1.49981472 Z M8,2.875 C6.08691661,2.875 4.49330179,4.34164175 4.33482317,6.24814971 L3.83657402,11.9747508 L12.163426,11.9747508 L11.6651768,6.24814971 C11.5066982,4.34164175 9.91308339,2.875 8,2.875 Z"/>
</svg>
