<svg xmlns="http://www.w3.org/2000/svg" width="16" height="16" viewBox="0 0 16 16">
  <path d="M12,8 C14.209139,8 16,9.790861 16,12 C16,14.209139 14.209139,16 12,16 C9.790861,16 8,14.209139 8,12 C8,9.790861 9.790861,8 12,8 Z M13.5135855,1 C13.7590454,1 13.9631938,1.17687516 14.0055298,1.41012437 L14.0135855,1.5 L14.0135855,6.49725382 C14.0135855,6.77339619 13.7897279,6.99725382 13.5135855,6.99725382 C13.2681256,6.99725382 13.0639771,6.82037866 13.0216411,6.58712945 L13.0135855,6.49725382 L13.0135855,2 L2,2 L2,14.0017649 L6.84086594,14.0017649 C7.11700831,14.0017649 7.34086594,14.2256225 7.34086594,14.5017649 C7.34086594,14.7472248 7.16399078,14.9513732 6.93074157,14.9937092 L6.84086594,15.0017649 L1.5,15.0017649 C1.25454011,15.0017649 1.05039163,14.8248897 1.00805567,14.5916405 L1,14.5017649 L1,1.5 C1,1.25454011 1.17687516,1.05039163 1.41012437,1.00805567 L1.5,1 L13.5135855,1 Z M12.0073357,9 C10.3504815,9 9.00733575,10.3431458 9.00733575,12 C9.00733575,13.6568542 10.3504815,15 12.0073357,15 C13.66419,15 15.0073357,13.6568542 15.0073357,12 C15.0073357,10.3431458 13.66419,9 12.0073357,9 Z M11.5073357,10 C11.7834781,10 12.0073357,10.2238576 12.0073357,10.5 L12.0073357,12 L13.5073357,12 C13.7834781,12 14.0073357,12.2238576 14.0073357,12.5 C14.0073357,12.7761424 13.7834781,13 13.5073357,13 L11.5073357,13 C11.2311934,13 11.0073357,12.7761424 11.0073357,12.5 L11.0073357,10.5 C11.0073357,10.2238576 11.2311934,10 11.5073357,10 Z M6.50613995,7.99831782 C6.78228233,7.99831782 7.00613995,8.22217545 7.00613995,8.49831782 C7.00613995,8.7744602 6.78228233,8.99831782 6.50613995,8.99831782 L3.50613995,8.99831782 C3.22999758,8.99831782 3.00613995,8.7744602 3.00613995,8.49831782 C3.00613995,8.22217545 3.22999758,7.99831782 3.50613995,7.99831782 L6.50613995,7.99831782 Z M11.50614,5.99725382 C11.7822823,5.99725382 12.00614,6.22111144 12.00614,6.49725382 C12.00614,6.77339619 11.7822823,6.99725382 11.50614,6.99725382 L3.50613995,6.99725382 C3.22999758,6.99725382 3.00613995,6.77339619 3.00613995,6.49725382 C3.00613995,6.22111144 3.22999758,5.99725382 3.50613995,5.99725382 L11.50614,5.99725382 Z M11.50614,3.99618981 C11.7822823,3.99618981 12.00614,4.22004744 12.00614,4.49618981 C12.00614,4.77233219 11.7822823,4.99618981 11.50614,4.99618981 L3.50613995,4.99618981 C3.22999758,4.99618981 3.00613995,4.77233219 3.00613995,4.49618981 C3.00613995,4.22004744 3.22999758,3.99618981 3.50613995,3.99618981 L11.50614,3.99618981 Z"/>
</svg>
