<svg xmlns="http://www.w3.org/2000/svg" width="16" height="16" viewBox="0 0 16 16">
  <path d="M0.605872716,2.81427166 L0.691961171,2.84131424 L3.02188166,3.80928926 C3.13658369,3.85694269 3.22836946,3.94506033 3.28106988,4.05518515 L3.31301404,4.14161673 L5.18462353,11.1249363 C5.85133683,11.3043648 6.40688882,11.8245076 6.59844048,12.5393881 L14.80881,10.3394262 C15.0755431,10.2679553 15.3497115,10.4262466 15.4211824,10.6929796 C15.4926533,10.9597127 15.3343621,11.2338812 15.067629,11.3053521 L6.59867869,13.5750609 C6.41925024,14.2417742 5.89910741,14.7973262 5.18422691,14.9888779 C4.11729471,15.2747615 3.02062079,14.6415965 2.73473717,13.5746643 C2.46184826,12.556229 3.02635693,11.5106944 4.00619419,11.1691053 L4.149,11.125 L2.41082081,4.63828907 L0.308300118,3.76478822 C0.0532898195,3.65884315 -0.067551421,3.366231 0.0383936531,3.1112207 C0.120795377,2.91287936 0.316119157,2.79570202 0.518844774,2.80326579 L0.605872716,2.81427166 Z M4.40776978,12.0911004 C3.87430367,12.2340422 3.55772118,12.7823792 3.700663,13.3158453 C3.84360481,13.8493114 4.39194176,14.1658938 4.92540787,14.022952 C5.45887397,13.8800102 5.77545646,13.3316733 5.63251465,12.7982072 C5.48957284,12.2647411 4.94123588,11.9481586 4.40776978,12.0911004 Z M12.2552947,2.74142915 L13.808209,8.53698411 C13.9511508,9.07045021 13.6345683,9.61878717 13.1011022,9.76172898 L7.30554726,11.3146432 C6.77208115,11.4575851 6.2237442,11.1410026 6.08080238,10.6075365 L4.52788811,4.81198151 C4.3849463,4.27851541 4.70152879,3.73017845 5.2349949,3.58723664 L11.0305499,2.03432237 C11.564016,1.89138056 12.1123529,2.20796305 12.2552947,2.74142915 Z M11.2893689,3.00024819 L5.49381394,4.55316246 L7.04672821,10.3487174 L12.8422832,8.79580315 L11.2893689,3.00024819 Z"/>
</svg>
