<svg xmlns="http://www.w3.org/2000/svg" viewBox="0 0 16 16"><path d="M14.113 8.969a.5.5 0 01.477.649h.004l-1.325 4.944a1 1 0 01-1.225.707l-2.82-.756a.5.5 0 01.085-.993l.073.005.072.014 2.85.764 1.315-4.917a.5.5 0 01.494-.417zm-.31-7.95a1 1 0 011 1V6.26a1 1 0 01-.293.707l-7.485 7.486a1 1 0 01-1.414 0L1.368 10.21a1 1 0 010-1.414l7.486-7.485a1 1 0 01.707-.293h4.242zm0 1H9.561L2.075 9.504l4.243 4.243 7.485-7.486V2.02zM10.5 3.615a1.5 1.5 0 110 3 1.5 1.5 0 010-3zm0 1a.5.5 0 100 1 .5.5 0 000-1z"/></svg>