<svg xmlns="http://www.w3.org/2000/svg" width="16" height="16" viewBox="0 0 16 16">
  <path d="M14.5,14 C14.7761424,14 15,14.2238576 15,14.5 C15,14.7761424 14.7761424,15 14.5,15 L1.5,15 C1.22385763,15 1,14.7761424 1,14.5 C1,14.2238576 1.22385763,14 1.5,14 L14.5,14 Z M1.15017121,5.88323334 L5.95782934,1.17530265 C6.25319585,0.886063058 6.73750684,1.06209084 6.8007689,1.44696549 L6.80765812,1.53254181 L6.80765812,3.77521025 C10.4336369,3.95295807 12.9880482,6.06762845 14.313049,9.12856577 C14.8044716,10.2638208 15.0536686,11.4288123 14.9905023,12.1542672 C14.8853025,13.3624673 13.9513001,13.2850821 13.35695,12.2618748 L13.289945,12.1396343 C12.3249602,10.2735922 10.2967713,8.9201435 7.17296175,8.09866363 L6.80765812,8.00623941 L6.80765812,10.7325418 C6.80765812,11.1407075 6.35309773,11.3653011 6.03269005,11.1506872 L5.96629916,11.0978828 L1.15864104,6.60581352 C0.973630482,6.4329476 0.950028497,6.15394251 1.09000714,5.95410113 L1.15017121,5.88323334 L5.95782934,1.17530265 L1.15017121,5.88323334 Z M5.80765812,2.72198138 L2.22329307,6.23199432 L5.80765812,9.58107111 L5.80765812,7.37929167 C5.80765812,7.06105689 6.1010149,6.82379913 6.41221407,6.89034581 C10.1067665,7.68038709 12.6248471,9.12429367 13.9309695,11.2432758 C13.838741,10.7377057 13.6566895,10.1295731 13.3953397,9.52581843 C12.1568669,6.66477272 9.76093301,4.76307061 6.30765812,4.76307061 C6.06219824,4.76307061 5.85804975,4.58619545 5.81571379,4.35294624 L5.80765812,4.26307061 L5.80765812,2.72198138 Z"/>
</svg>
