<svg xmlns="http://www.w3.org/2000/svg" width="16" height="16" viewBox="0 0 16 16">
  <path d="M5.52512627,5.63204164 L7.99957288,8.10659503 L10.4748737,5.63204164 C10.6484401,5.45847529 10.9178645,5.43919014 11.1127326,5.57418619 L11.1819805,5.63204164 C11.3555469,5.80560799 11.374832,6.07503239 11.239836,6.26990054 L11.1819805,6.33914842 L8.70657288,8.81359503 L10.2261027,10.3330232 C10.5991682,10.11166 11.0347419,9.98456645 11.5,9.98456645 C12.8807119,9.98456645 14,11.1038546 14,12.4845665 C14,13.8652783 12.8807119,14.9845665 11.5,14.9845665 C10.1192881,14.9845665 9,13.8652783 9,12.4845665 C9,11.9309236 9.17996793,11.4193146 9.48459446,11.0050486 L7.99957288,9.52059503 L6.51540554,11.0050486 C6.82003207,11.4193146 7,11.9309236 7,12.4845665 C7,13.8652783 5.88071187,14.9845665 4.5,14.9845665 C3.11928813,14.9845665 2,13.8652783 2,12.4845665 C2,11.1038546 3.11928813,9.98456645 4.5,9.98456645 C4.96525806,9.98456645 5.40083183,10.11166 5.77389733,10.3330232 L7.29257288,8.81359503 L4.81801948,6.33914842 C4.62275734,6.14388628 4.62275734,5.82730379 4.81801948,5.63204164 C5.01328163,5.4367795 5.32986412,5.4367795 5.52512627,5.63204164 Z M4.5,10.9845665 C3.67157288,10.9845665 3,11.6561393 3,12.4845665 C3,13.3129936 3.67157288,13.9845665 4.5,13.9845665 C5.32842712,13.9845665 6,13.3129936 6,12.4845665 C6,11.6561393 5.32842712,10.9845665 4.5,10.9845665 Z M11.5,10.9845665 C10.6715729,10.9845665 10,11.6561393 10,12.4845665 C10,13.3129936 10.6715729,13.9845665 11.5,13.9845665 C12.3284271,13.9845665 13,13.3129936 13,12.4845665 C13,11.6561393 12.3284271,10.9845665 11.5,10.9845665 Z M13,2 C13.5128358,2 13.9355072,2.38604019 13.9932723,2.88337887 L14,3 L14,7.52677571 C14,7.78813027 13.7761424,8 13.5,8 C13.2545401,8 13.0503916,7.83259676 13.0080557,7.61183837 L13,7.52677571 L13,2.94644858 L3,2.94644858 L3,7.52677571 C3,7.78813027 2.77614237,8 2.5,8 C2.25454011,8 2.05039163,7.83259676 2.00805567,7.61183837 L2,7.52677571 L2,3 C2,2.48716416 2.38604019,2.06449284 2.88337887,2.00672773 L3,2 L13,2 Z"/>
</svg>
