<svg xmlns="http://www.w3.org/2000/svg" width="16" height="16" viewBox="0 0 16 16">
  <path d="M8,1 C11.8659932,1 15,4.13400675 15,8 C15,11.8659932 11.8659932,15 8,15 C4.13400675,15 1,11.8659932 1,8 C1,4.13400675 4.13400675,1 8,1 Z M8,2 C4.6862915,2 2,4.6862915 2,8 C2,11.3137085 4.6862915,14 8,14 C11.3137085,14 14,11.3137085 14,8 C14,4.6862915 11.3137085,2 8,2 Z M7.097234,9.69565922 L11.1464466,5.64644661 C11.3417088,5.45118446 11.6582912,5.45118446 11.8535534,5.64644661 C12.0271197,5.82001296 12.0464049,6.08943736 11.9114088,6.2843055 L11.8535534,6.35355339 L7.45078739,10.7563194 C7.27722103,10.9298857 7.00779663,10.9491709 6.81292849,10.8141748 L6.7436806,10.7563194 L4.14644661,8.1590854 C3.95118446,7.96382325 3.95118446,7.64724076 4.14644661,7.45197862 C4.32001296,7.27841227 4.58943736,7.25912712 4.7843055,7.39412317 L4.85355339,7.45197862 L7.097234,9.69565922 L11.1464466,5.64644661 L7.097234,9.69565922 Z"/>
</svg>
