<svg xmlns="http://www.w3.org/2000/svg" width="16" height="16" viewBox="0 0 16 16">
  <path fill-rule="evenodd" d="M2,4 C1.72385763,4 1.5,3.77614237 1.5,3.5 C1.5,3.22385763 1.72385763,3 2,3 L6,2.999 L6,2 C6,1.44771525 6.44771525,1 7,1 L10,1 C10.5522847,1 11,1.44771525 11,2 L11,2.999 L15,3 C15.2761424,3 15.5,3.22385763 15.5,3.5 C15.5,3.77614237 15.2761424,4 15,4 L14,4 L14,14 C14,14.5522847 13.5522847,15 13,15 L4,15 C3.44771525,15 3,14.5522847 3,14 L3,4 L2,4 Z M13,4 L4,4 L4,14 L13,14 L13,4 Z M6.5,7 C6.77614237,7 7,7.22385763 7,7.5 L7,11.5 C7,11.7761424 6.77614237,12 6.5,12 C6.22385763,12 6,11.7761424 6,11.5 L6,7.5 C6,7.22385763 6.22385763,7 6.5,7 Z M8.5,6 C8.77614237,6 9,6.22385763 9,6.5 L9,11.5 C9,11.7761424 8.77614237,12 8.5,12 C8.22385763,12 8,11.7761424 8,11.5 L8,6.5 C8,6.22385763 8.22385763,6 8.5,6 Z M10.5,7 C10.7761424,7 11,7.22385763 11,7.5 L11,11.5 C11,11.7761424 10.7761424,12 10.5,12 C10.2238576,12 10,11.7761424 10,11.5 L10,7.5 C10,7.22385763 10.2238576,7 10.5,7 Z M10,2 L7,2 L7,2.999 L10,2.999 L10,2 Z"/>
</svg>
