<svg xmlns="http://www.w3.org/2000/svg" width="16" height="16" viewBox="0 0 16 16">
  <path d="M8,1 C10.209139,1 12,2.790861 12,5 C12,6.4279908 11.2517157,7.68121044 10.125867,8.38893919 C12.3903292,9.24573552 14,11.4348884 14,14 L14,14.5 C14,14.7761424 13.7761424,15 13.5,15 C13.2238576,15 13,14.7761424 13,14.5 L13,14 C13,11.2385763 10.7614237,9 8,9 C5.23857625,9 3,11.2385763 3,14 L3,14.5 C3,14.7761424 2.77614237,15 2.5,15 C2.22385763,15 2,14.7761424 2,14.5 L2,14 C2,11.4348884 3.60967082,9.24573552 5.87400718,8.38754671 C4.74828426,7.68121044 4,6.4279908 4,5 C4,2.790861 5.790861,1 8,1 Z M8,2 C6.34314575,2 5,3.34314575 5,5 C5,6.65685425 6.34314575,8 8,8 C9.65685425,8 11,6.65685425 11,5 C11,3.34314575 9.65685425,2 8,2 Z"/>
</svg>
