<svg xmlns="http://www.w3.org/2000/svg" width="16" height="16" viewBox="0 0 16 16">
  <path fill-rule="evenodd" d="M8,3 C11.2768566,3 14.2509832,4.73532307 15.8639541,7.49526828 C16.0461435,7.80701139 16.0461267,8.19275955 15.8639103,8.50448682 C14.2503225,11.2649365 11.2766689,13 8,13 C4.72361081,13 1.74984512,11.2651739 0.136703532,8.50585685 C-0.0454653311,8.19425267 -0.0455747862,7.8086603 0.136417142,7.49695275 C1.74851701,4.73582102 4.72261636,3 8,3 Z M8,4 C5.00862607,4 2.39683566,5.60872276 1,8.0011597 C2.39756369,10.3917256 5.00904299,12 8,12 C10.990957,12 13.6024363,10.3917256 15.0005844,7.99984002 C13.6031643,5.60872276 10.9913739,4 8,4 Z M8,4.5 C9.93299662,4.5 11.5,6.06700338 11.5,8 C11.5,9.93299662 9.93299662,11.5 8,11.5 C6.06700338,11.5 4.5,9.93299662 4.5,8 C4.5,6.06700338 6.06700338,4.5 8,4.5 Z M8,5.5 C6.61928813,5.5 5.5,6.61928813 5.5,8 C5.5,9.38071187 6.61928813,10.5 8,10.5 C9.38071187,10.5 10.5,9.38071187 10.5,8 C10.5,6.61928813 9.38071187,5.5 8,5.5 Z"/>
</svg>
