<svg xmlns="http://www.w3.org/2000/svg" width="16" height="16" viewBox="0 0 16 16">
  <path d="M6.99507794,0.99650005 C10.3087864,0.99650005 12.9950779,3.68279155 12.9950779,6.99650005 C12.9950779,8.47166517 12.4627175,9.82249084 11.5796354,10.8673381 L14.8584755,14.1459314 C15.0537376,14.3411935 15.0537376,14.657776 14.8584755,14.8530381 C14.6849091,15.0266045 14.4154847,15.0458896 14.2206166,14.9108936 L14.1513687,14.8530381 L10.8729127,11.575135 C9.82710243,12.4617588 8.47353794,12.9965001 6.99507794,12.9965001 C3.68136944,12.9965001 0.99507794,10.3102085 0.99507794,6.99650005 C0.99507794,3.68279155 3.68136944,0.99650005 6.99507794,0.99650005 Z M6.99507794,1.99650005 C4.23365419,1.99650005 1.99507794,4.2350763 1.99507794,6.99650005 C1.99507794,9.7579238 4.23365419,11.9965001 6.99507794,11.9965001 C9.75650169,11.9965001 11.9950779,9.7579238 11.9950779,6.99650005 C11.9950779,4.2350763 9.75650169,1.99650005 6.99507794,1.99650005 Z M9.49507794,6.49650005 C9.77122031,6.49650005 9.99507794,6.72035768 9.99507794,6.99650005 C9.99507794,7.27264243 9.77122031,7.49650005 9.49507794,7.49650005 L4.49507794,7.49650005 C4.21893557,7.49650005 3.99507794,7.27264243 3.99507794,6.99650005 C3.99507794,6.72035768 4.21893557,6.49650005 4.49507794,6.49650005 L9.49507794,6.49650005 Z"/>
</svg>
